<svg width="95" height="94" viewBox="0 0 95 94" fill="none" xmlns="http://www.w3.org/2000/svg">
<g filter="url(#filter0_bd_330_194)">
<rect x="24.082" y="6.58472" width="66" height="66" rx="8" transform="rotate(15 24.082 6.58472)" fill="white" fill-opacity="0.04" shape-rendering="crispEdges"/>
<path d="M41.914 30.3564C41.4549 30.3129 40.6234 30.3591 40.1505 30.4585C38.4471 30.8152 36.9902 31.8492 36.0218 33.387L35.7245 33.8576L33.1187 43.5826L30.5129 53.3075L30.5351 53.8637C30.6191 56.1053 31.6922 57.964 33.5915 59.1576L34.0621 59.4548L43.7871 62.0606L53.512 64.6664L54.0682 64.6443C56.3098 64.5602 58.1685 63.4871 59.3621 61.5878L59.6593 61.1173L62.2651 51.3923L64.8709 41.6673L64.8488 41.1112C64.7647 38.8696 63.6916 37.0109 61.7923 35.8173L61.3218 35.52L51.7695 32.9544C46.5178 31.5411 42.0814 30.3707 41.914 30.3564ZM60.0856 37.0534C60.9837 37.3979 61.678 37.9324 62.1815 38.6542C62.8752 39.6471 63.1189 40.7455 62.9249 41.9712C62.8035 42.7212 58.3958 59.1709 58.126 59.8811C57.6811 61.0396 56.9209 61.8691 55.8236 62.382C55.0267 62.7553 54.1582 62.8711 53.2082 62.7205C52.4582 62.599 36.0085 58.1913 35.2982 57.9215C34.1398 57.4766 33.3103 56.7164 32.7974 55.6191C32.424 54.8222 32.3083 53.9537 32.4589 53.0037C32.5804 52.2537 36.9881 35.804 37.2579 35.0937C37.5005 34.4619 37.7921 33.9898 38.2091 33.5513C39.2165 32.5069 40.6686 32.0157 42.1 32.2403C42.7743 32.3476 59.4423 36.8076 60.0856 37.0534Z" fill="url(#paint0_linear_330_194)"/>
<path d="M47.9887 38.4213C47.4695 38.4656 46.9673 38.8567 46.7666 39.3776C46.6063 39.7932 46.6312 40.0199 46.9572 41.2443C47.1174 41.8558 47.2274 42.3805 47.1996 42.4158C47.1718 42.4511 45.9101 43.7148 44.3978 45.2291L41.6444 47.9759L39.9941 47.5643C38.4807 47.1893 38.3179 47.158 38.1379 47.2137C37.4956 47.4206 37.2115 47.7051 37.051 48.304C36.8906 48.9029 36.9943 49.2914 37.4471 49.7918C37.585 49.9388 37.766 49.9934 43.277 51.4884L48.9663 53.0251L48.88 52.7085C48.8357 52.5316 48.6361 51.7934 48.4464 51.064L48.0977 49.7418L46.5622 49.312L45.0211 48.8807L48.6371 45.2646C50.6315 43.2742 52.3091 41.5535 52.3769 41.4372C52.6571 40.9621 52.6293 40.3127 52.3077 39.8475C52.1023 39.5419 51.8374 39.3669 51.4153 39.2538C50.8906 39.1132 50.4359 39.2359 49.998 39.6382C49.8742 39.7579 49.7581 39.8491 49.741 39.8445C49.7238 39.8399 49.6688 39.7029 49.6215 39.5374C49.5127 39.1903 49.3256 38.9079 49.0823 38.7204C48.8703 38.5536 48.2828 38.3962 47.9887 38.4213Z" fill="url(#paint1_linear_330_194)"/>
<path d="M49.6936 45.7682L48.4943 46.9813L49.8163 51.9266C50.5426 54.646 51.1822 56.9815 51.2357 57.1243C51.4621 57.7168 52.2391 58.1023 52.9289 57.9692C53.541 57.852 53.9173 57.4515 54.0547 56.7792C54.1354 56.4096 54.1252 56.3335 53.8655 55.3408L53.5894 54.2948L54.4013 54.4818C55.266 54.6768 55.3463 54.6739 55.8129 54.4382C56.1741 54.2538 56.3734 53.9893 56.5002 53.5159C56.6607 52.917 56.5569 52.5285 56.1041 52.0281C55.9761 51.8899 55.8195 51.8357 54.3213 51.4037L52.6863 50.935L51.8384 47.7795C51.3692 46.0399 50.965 44.605 50.938 44.5917C50.9126 44.5726 50.3551 45.1018 49.6936 45.7682Z" fill="url(#paint2_linear_330_194)"/>
<path d="M37.9028 51.7363C37.5977 52.0763 37.5725 52.1246 37.4827 52.5285C37.4107 52.8882 37.4072 53.0156 37.4871 53.2877C37.6295 53.7599 37.9396 54.0631 38.4396 54.2276C38.9224 54.3875 39.2709 54.3648 39.6557 54.1378C39.8872 54.0041 41.5395 52.4234 41.5716 52.3036C41.5762 52.2865 40.8279 52.0676 39.9038 51.82L38.2326 51.3722L37.9028 51.7363Z" fill="url(#paint3_linear_330_194)"/>
<rect x="24.4356" y="7.19709" width="65" height="65" rx="7.5" transform="rotate(15 24.4356 7.19709)" stroke="url(#paint4_linear_330_194)" stroke-opacity="0.12" shape-rendering="crispEdges"/>
</g>
<defs>
<filter id="filter0_bd_330_194" x="-9" y="-9.41528" width="112.833" height="112.833" filterUnits="userSpaceOnUse" color-interpolation-filters="sRGB">
<feFlood flood-opacity="0" result="BackgroundImageFix"/>
<feGaussianBlur in="BackgroundImageFix" stdDeviation="8"/>
<feComposite in2="SourceAlpha" operator="in" result="effect1_backgroundBlur_330_194"/>
<feColorMatrix in="SourceAlpha" type="matrix" values="0 0 0 0 0 0 0 0 0 0 0 0 0 0 0 0 0 0 127 0" result="hardAlpha"/>
<feOffset/>
<feGaussianBlur stdDeviation="4.02174"/>
<feComposite in2="hardAlpha" operator="out"/>
<feColorMatrix type="matrix" values="0 0 0 0 1 0 0 0 0 1 0 0 0 0 1 0 0 0 0.08 0"/>
<feBlend mode="normal" in2="effect1_backgroundBlur_330_194" result="effect2_dropShadow_330_194"/>
<feBlend mode="normal" in="SourceGraphic" in2="effect2_dropShadow_330_194" result="shape"/>
</filter>
<linearGradient id="paint0_linear_330_194" x1="43.7871" y1="62.0606" x2="51.5986" y2="32.9075" gradientUnits="userSpaceOnUse">
<stop stop-color="#FF3939"/>
<stop offset="1" stop-color="#4844F2"/>
</linearGradient>
<linearGradient id="paint1_linear_330_194" x1="42.9838" y1="51.422" x2="46.5907" y2="37.9611" gradientUnits="userSpaceOnUse">
<stop stop-color="#FF3939"/>
<stop offset="1" stop-color="#4844F2"/>
</linearGradient>
<linearGradient id="paint2_linear_330_194" x1="50.5565" y1="57.4916" x2="53.8071" y2="45.3603" gradientUnits="userSpaceOnUse">
<stop stop-color="#FF3939"/>
<stop offset="1" stop-color="#4844F2"/>
</linearGradient>
<linearGradient id="paint3_linear_330_194" x1="38.9974" y1="54.3818" x2="39.6986" y2="51.765" gradientUnits="userSpaceOnUse">
<stop stop-color="#FF3939"/>
<stop offset="1" stop-color="#4844F2"/>
</linearGradient>
<linearGradient id="paint4_linear_330_194" x1="20.1612" y1="-5.63749" x2="95.2024" y2="2.10865" gradientUnits="userSpaceOnUse">
<stop stop-color="#FF3939"/>
<stop offset="1" stop-color="#4844F2"/>
</linearGradient>
</defs>
</svg>
