<svg width="86" height="69" viewBox="0 0 86 69" fill="none" xmlns="http://www.w3.org/2000/svg">
<g filter="url(#filter0_b_428_22)">
<rect x="0.5" y="0.0847168" width="85" height="68" rx="8" fill="white" fill-opacity="0.04"/>
<path d="M38.3945 14.2701C37.2992 14.6673 36.4414 15.8061 36.3095 17.0508C36.2039 18.0439 36.3886 18.5205 37.8007 20.9834C38.5001 22.2149 39.0411 23.2874 39.0016 23.3801C38.962 23.4728 36.9693 26.942 34.5807 31.0997L30.2259 38.6473L26.4252 38.7135C22.9414 38.7797 22.5719 38.8062 22.2156 39.0313C20.9487 39.8522 20.5 40.6335 20.5 42.0238C20.5 43.4141 20.9487 44.1954 22.2156 45.0163C22.5983 45.2547 23.0205 45.2679 35.7816 45.3076L48.9517 45.3341L48.5822 44.6985C48.3843 44.341 47.5265 42.858 46.6951 41.3882L45.1775 38.7267L38.0382 38.6473L43.7523 28.7163C46.9063 23.2477 49.5324 18.547 49.6116 18.2557C49.9415 17.064 49.506 15.6737 48.5427 14.8527C47.9224 14.3098 47.2494 14.0847 46.2728 14.0847C45.0588 14.0847 44.1482 14.6144 43.4356 15.7399C43.2376 16.0709 43.0397 16.3357 43.0001 16.3357C42.9605 16.3357 42.7626 16.0709 42.5646 15.7399C42.1291 15.0513 41.5617 14.5482 40.9282 14.2833C40.374 14.045 39.0147 14.045 38.3945 14.2701Z" fill="white"/>
<path d="M46.3254 29.1931L44.4383 32.5166L50.1524 42.4608C53.2932 47.9295 56.0249 52.6169 56.2228 52.8949C57.0542 54.0469 58.9545 54.4309 60.3665 53.7424C61.6202 53.1333 62.2009 52.0475 62.1085 50.5115C62.0689 49.6641 62.0029 49.5052 60.868 47.5057L59.6671 45.4004L61.5278 45.3342C63.5073 45.2547 63.6789 45.2017 64.5498 44.4205C65.2229 43.8114 65.5 43.1229 65.5 42.0238C65.5 40.6335 65.0513 39.8523 63.7845 39.0313C63.4281 38.8062 63.0586 38.7797 59.5748 38.7135L55.7741 38.6473L52.1187 32.3048C50.0996 28.8091 48.3973 25.9357 48.3313 25.9225C48.2653 25.896 47.368 27.3658 46.3254 29.1931Z" fill="white"/>
<path d="M24.3272 48.9622C23.8653 49.8759 23.8389 49.995 23.8785 50.9219C23.9313 51.7429 23.9973 52.0209 24.3272 52.5638C24.9079 53.504 25.7524 53.9807 26.9269 54.0469C28.0618 54.1131 28.8008 53.8615 29.5003 53.1465C29.9225 52.7227 32.575 48.3399 32.575 48.0618C32.575 48.0221 30.8331 47.9824 28.6953 47.9824H24.8287L24.3272 48.9622Z" fill="white"/>
<rect x="1" y="0.584717" width="84" height="67" rx="7.5" stroke="url(#paint0_linear_428_22)"/>
</g>
<defs>
<filter id="filter0_b_428_22" x="-39.5" y="-39.9153" width="165" height="148" filterUnits="userSpaceOnUse" color-interpolation-filters="sRGB">
<feFlood flood-opacity="0" result="BackgroundImageFix"/>
<feGaussianBlur in="BackgroundImageFix" stdDeviation="20"/>
<feComposite in2="SourceAlpha" operator="in" result="effect1_backgroundBlur_428_22"/>
<feBlend mode="normal" in="SourceGraphic" in2="effect1_backgroundBlur_428_22" result="shape"/>
</filter>
<linearGradient id="paint0_linear_428_22" x1="43" y1="0.0847168" x2="43.4911" y2="68.0859" gradientUnits="userSpaceOnUse">
<stop stop-color="white" stop-opacity="0.22"/>
<stop offset="1" stop-color="white" stop-opacity="0"/>
</linearGradient>
</defs>
</svg>
