<svg width="102" height="101" viewBox="0 0 102 101" fill="none" xmlns="http://www.w3.org/2000/svg">
<g filter="url(#filter0_bd_330_202)">
<rect x="39" y="5.58472" width="66" height="66" rx="8" transform="rotate(30 39 5.58472)" fill="white" fill-opacity="0.04" shape-rendering="crispEdges"/>
<g clip-path="url(#clip0_330_202)">
<path d="M37.7766 60.1278L37.7784 60.1294L38.1949 60.5091L43.5679 63.6113L48.9482 66.7176L49.5419 66.9173C49.542 66.9173 49.5421 66.9174 49.5422 66.9174C49.5423 66.9174 49.5424 66.9175 49.5425 66.9175C53.684 68.3076 58.1511 66.9842 60.8516 63.5712L60.8516 63.5712L60.8569 63.5646C60.9848 63.4058 61.1603 63.1497 61.651 62.3218C62.135 61.5052 62.8991 60.1788 64.198 57.9164C64.198 57.9163 64.1981 57.9162 64.1982 57.9161C64.1982 57.916 64.1983 57.9159 64.1983 57.9158L67.1623 52.7452L67.3488 52.1776C67.349 52.1771 67.3491 52.1767 67.3493 52.1763C68.641 48.2024 67.5188 44.0142 64.4132 41.2186C64.4128 41.2183 64.4125 41.218 64.4121 41.2177L63.9672 40.8197L58.7313 37.7826C56.5856 36.5401 55.2344 35.7618 54.3685 35.2744C53.4753 34.7717 53.1575 34.6133 53.0332 34.5653C48.9746 33.0061 44.4957 34.0989 41.6214 37.3557C41.6213 37.3558 41.6212 37.3559 41.6212 37.356L41.2067 37.826L38.116 43.1792L35.0253 48.5324L34.8261 49.1247C34.826 49.125 34.8259 49.1253 34.8258 49.1256C34.1734 51.0792 34.1039 53.1141 34.6284 55.0716C35.1477 57.0095 36.1814 58.6808 37.7766 60.1278ZM54.1963 44.8239C54.2366 44.9137 54.2741 44.9979 54.3085 45.0756C54.4103 45.0649 54.5224 45.0536 54.6423 45.0417C55.1636 44.9902 55.8531 44.9275 56.541 44.8683C57.2288 44.8091 57.9192 44.7531 58.4422 44.7151C58.7027 44.6962 58.9272 44.6813 59.0907 44.6728C59.1706 44.6687 59.2467 44.6655 59.3086 44.6647C59.3365 44.6643 59.3808 44.6641 59.4279 44.6668C59.4478 44.6679 59.4979 44.671 59.5585 44.6818C59.5868 44.6868 59.6492 44.6988 59.7245 44.7257L59.7277 44.7268C59.7635 44.7394 59.9274 44.7973 60.0854 44.9497L60.0854 44.9497C60.1028 44.9666 60.1184 44.9829 60.1319 44.9978C60.1352 45.0015 60.1386 45.0053 60.1419 45.0091C60.1648 45.0351 60.1806 45.0557 60.1881 45.0656C60.2049 45.0878 60.2176 45.1065 60.225 45.1177C60.2398 45.1399 60.2507 45.1584 60.256 45.1673C60.2672 45.1865 60.2764 45.2034 60.2812 45.2125C60.2921 45.2327 60.3034 45.2548 60.3134 45.2746C60.3343 45.316 60.3618 45.3717 60.394 45.4378C60.459 45.5709 60.5496 45.759 60.6588 45.9874C60.8772 46.4444 61.1731 47.0692 61.4938 47.7532C61.8162 48.4347 62.109 49.0602 62.3206 49.5186C62.4262 49.7474 62.513 49.9376 62.5734 50.0734C62.6032 50.1401 62.6293 50.1998 62.6487 50.2464C62.6576 50.2677 62.67 50.298 62.6813 50.3291C62.6859 50.3417 62.6981 50.3752 62.7096 50.417C62.7145 50.4347 62.7277 50.4835 62.7366 50.5469C62.7409 50.5776 62.7485 50.6402 62.7459 50.7194C62.7442 50.7721 62.7368 50.9722 62.6124 51.1878C62.4873 51.4043 62.3167 51.5109 62.2725 51.5383C62.2052 51.58 62.1474 51.6046 62.1188 51.6161C62.0597 51.64 62.011 51.6529 61.9934 51.6575C61.9517 51.6683 61.9167 51.6746 61.9036 51.6769C61.871 51.6826 61.8386 51.687 61.8156 51.69C61.7653 51.6966 61.7002 51.7039 61.6269 51.7116C61.4779 51.7274 61.268 51.7477 61.0144 51.771C60.5063 51.8178 59.8101 51.878 59.047 51.9402C58.4633 51.9894 57.9944 52.0284 57.6179 52.0575C57.8018 52.4439 58.017 52.8986 58.244 53.3827C58.5674 54.0662 58.8578 54.6939 59.066 55.1552C59.1698 55.3852 59.2554 55.5785 59.3148 55.7183C59.3438 55.7865 59.3708 55.8516 59.3912 55.9053C59.4002 55.929 59.4153 55.9694 59.4287 56.0138C59.434 56.0315 59.4493 56.0827 59.4602 56.148C59.465 56.1768 59.4766 56.2509 59.4739 56.3458C59.4738 56.3466 59.4738 56.3478 59.4738 56.3492C59.4731 56.3932 59.4674 56.7295 59.1927 57.0136L59.1741 57.0328L59.1545 57.051C59.0305 57.1662 58.9072 57.2206 58.8756 57.2345L58.875 57.2348C58.8254 57.2567 58.7839 57.2702 58.7616 57.2771C58.7158 57.2912 58.6772 57.2996 58.6586 57.3035C58.6175 57.3122 58.5776 57.3185 58.5497 57.3226C58.4896 57.3315 58.4152 57.3407 58.3355 57.3497C58.1731 57.3682 57.9507 57.3904 57.6925 57.4146C57.1742 57.4633 56.4912 57.5219 55.8098 57.5771C55.1283 57.6323 54.4441 57.6843 53.9234 57.7197C53.6871 57.7358 53.4802 57.7488 53.3211 57.757C53.302 57.8383 53.2692 57.933 53.2133 58.03C53.0657 58.2857 52.8476 58.3976 52.8136 58.415C52.8124 58.4157 52.8114 58.4162 52.8107 58.4166C52.7436 58.4518 52.6868 58.4718 52.6618 58.4803C52.6074 58.4986 52.5618 58.5089 52.5436 58.5129C52.5005 58.5224 52.459 58.529 52.4321 58.5332C52.3726 58.5423 52.2985 58.5517 52.2195 58.5609C52.058 58.5799 51.8351 58.6031 51.5755 58.6285C51.0546 58.6796 50.3654 58.7418 49.6779 58.8006C48.9904 58.8594 48.3004 58.9152 47.7777 58.9535C47.5174 58.9725 47.2935 58.9876 47.1307 58.9964C47.051 59.0007 46.9763 59.0041 46.9162 59.0052C46.8888 59.0058 46.8472 59.0062 46.8037 59.0043C46.7851 59.0035 46.74 59.0013 46.6853 58.9931C46.6598 58.9892 46.6039 58.9801 46.5358 58.9591C46.535 58.9588 46.5339 58.9585 46.5326 58.9581C46.498 58.9477 46.3023 58.889 46.124 58.7126L46.124 58.7126C46.1209 58.7095 46.1179 58.7065 46.1149 58.7035C46.11 58.6984 46.105 58.6933 46.1001 58.6881L46.1001 58.6881C46.0353 58.6192 45.9946 58.5563 45.9878 58.546L45.9871 58.5448C45.9703 58.5193 45.9569 58.4968 45.9488 58.4828C45.9319 58.4537 45.9157 58.4237 45.9025 58.3987C45.8751 58.3466 45.8417 58.2804 45.8051 58.2067C45.7311 58.0574 45.6325 57.853 45.519 57.6151C45.2914 57.1381 44.9977 56.5121 44.7084 55.8896C44.4192 55.2671 44.133 54.645 43.9208 54.1758C43.815 53.9419 43.7258 53.7421 43.6634 53.5979C43.6328 53.5274 43.6051 53.4621 43.5845 53.4102C43.5754 53.3872 43.561 53.3504 43.5481 53.3114C43.5434 53.2969 43.5279 53.2502 43.5156 53.191C43.5107 53.1679 43.4949 53.0914 43.494 52.9925C43.4935 52.9449 43.4954 52.8409 43.5304 52.7148C43.557 52.619 43.6273 52.4236 43.8091 52.253C43.7382 52.1131 43.6487 51.9325 43.5476 51.7259C43.3183 51.2575 43.0213 50.6394 42.7282 50.0221C42.4352 49.4048 42.1442 48.7846 41.9269 48.3119C41.8187 48.0764 41.7267 47.8729 41.6613 47.7232C41.6293 47.6497 41.5999 47.5807 41.5776 47.5243C41.5672 47.498 41.5527 47.4604 41.5396 47.4204C41.5336 47.4023 41.5216 47.3646 41.5109 47.3178C41.5057 47.295 41.4966 47.2523 41.4907 47.1983L41.4906 47.1976C41.4869 47.1633 41.4723 47.0291 41.5101 46.864L41.5101 46.864L41.5117 46.8571C41.5998 46.4844 41.8629 46.3011 41.9129 46.2662L41.9143 46.2653C42.0004 46.2052 42.0769 46.1724 42.1086 46.1593C42.1784 46.1306 42.2376 46.1155 42.2582 46.1103C42.3096 46.0974 42.3578 46.089 42.3856 46.0844C42.4486 46.0739 42.5257 46.0638 42.605 46.0542C42.7681 46.0344 42.9927 46.0108 43.2532 45.9854C43.7765 45.9342 44.4698 45.873 45.1618 45.8156C45.6615 45.7741 46.163 45.7345 46.602 45.702L45.9922 44.4104L45.9913 44.4083C45.6658 43.7148 45.3694 43.0801 45.1553 42.616C45.0485 42.3845 44.9606 42.1923 44.8995 42.0554C44.8694 41.9881 44.843 41.928 44.8235 41.8814C44.8145 41.86 44.8021 41.8298 44.7907 41.7988C44.7861 41.7863 44.774 41.753 44.7624 41.7115C44.7575 41.694 44.7442 41.6454 44.7351 41.5823C44.7307 41.5518 44.7229 41.4892 44.7251 41.4099C44.7266 41.358 44.7331 41.1556 44.8588 40.9378L44.8815 40.8985L44.9077 40.8615C45.0542 40.6537 45.2405 40.5614 45.2759 40.5438C45.277 40.5433 45.278 40.5428 45.2788 40.5424C45.3416 40.5109 45.3944 40.4928 45.4193 40.4846C45.4721 40.4673 45.5165 40.4575 45.5352 40.4536C45.5785 40.4443 45.6202 40.4378 45.6477 40.4337C45.7081 40.4248 45.7833 40.4158 45.8633 40.4069C46.0269 40.3888 46.2521 40.3669 46.514 40.343C47.0398 40.2951 47.7345 40.2373 48.4271 40.1832C49.1197 40.129 49.8147 40.0781 50.341 40.044C50.6031 40.027 50.8289 40.0138 50.9932 40.0065C51.0736 40.003 51.1498 40.0003 51.2118 40C51.2398 39.9998 51.2839 39.9999 51.3306 40.0029C51.3504 40.0041 51.3999 40.0075 51.4598 40.0185C51.4878 40.0235 51.5495 40.0357 51.6239 40.0625L51.6271 40.0637C51.6691 40.0786 51.8936 40.1586 52.0726 40.386L52.137 40.4679L52.1831 40.5612L51.2867 41.0044L52.1831 40.5612L52.1832 40.5613L52.1833 40.5615L52.1836 40.5622L52.185 40.5649L52.19 40.5752L52.2096 40.6149L52.2835 40.7655C52.3472 40.8956 52.4387 41.083 52.5497 41.3124C52.7713 41.7704 53.0716 42.3975 53.3864 43.0735C53.7048 43.7469 53.9908 44.3667 54.1963 44.8239ZM53.1706 47.0563C52.9713 47.0777 52.7238 47.1023 52.4314 47.1299C51.7282 47.1962 50.7464 47.2813 49.5113 47.3831C49.6934 47.7678 49.906 48.2194 50.1306 48.6987C50.4486 49.3713 50.7365 49.9908 50.9452 50.447C50.9862 50.5367 51.0244 50.6205 51.0593 50.6974C51.1544 50.688 51.2583 50.678 51.3691 50.6676C51.892 50.6183 52.5848 50.5575 53.2766 50.4995C53.7701 50.4581 54.2649 50.418 54.6986 50.3845C54.4529 49.863 54.1683 49.2497 53.9035 48.6733C53.6494 48.1203 53.4097 47.5927 53.2343 47.1996C53.2121 47.1498 53.1908 47.102 53.1706 47.0563Z" stroke="url(#paint0_linear_330_202)" stroke-width="2"/>
</g>
<rect x="39.183" y="6.26773" width="65" height="65" rx="7.5" transform="rotate(30 39.183 6.26773)" stroke="url(#paint1_linear_330_202)" stroke-opacity="0.12" shape-rendering="crispEdges"/>
</g>
<defs>
<filter id="filter0_bd_330_202" x="-10" y="-10.4153" width="122.157" height="122.158" filterUnits="userSpaceOnUse" color-interpolation-filters="sRGB">
<feFlood flood-opacity="0" result="BackgroundImageFix"/>
<feGaussianBlur in="BackgroundImageFix" stdDeviation="8"/>
<feComposite in2="SourceAlpha" operator="in" result="effect1_backgroundBlur_330_202"/>
<feColorMatrix in="SourceAlpha" type="matrix" values="0 0 0 0 0 0 0 0 0 0 0 0 0 0 0 0 0 0 127 0" result="hardAlpha"/>
<feOffset/>
<feGaussianBlur stdDeviation="4.02174"/>
<feComposite in2="hardAlpha" operator="out"/>
<feColorMatrix type="matrix" values="0 0 0 0 1 0 0 0 0 1 0 0 0 0 1 0 0 0 0.08 0"/>
<feBlend mode="normal" in2="effect1_backgroundBlur_330_202" result="effect2_dropShadow_330_202"/>
<feBlend mode="normal" in="SourceGraphic" in2="effect2_dropShadow_330_202" result="shape"/>
</filter>
<linearGradient id="paint0_linear_330_202" x1="24.6629" y1="60.6834" x2="58.0097" y2="75.6035" gradientUnits="userSpaceOnUse">
<stop stop-color="#FF3939"/>
<stop offset="1" stop-color="#4844F2"/>
</linearGradient>
<linearGradient id="paint1_linear_330_202" x1="35.0792" y1="-6.63749" x2="110.12" y2="1.10865" gradientUnits="userSpaceOnUse">
<stop stop-color="#FF3939"/>
<stop offset="1" stop-color="#4844F2"/>
</linearGradient>
<clipPath id="clip0_330_202">
<rect width="32" height="32" fill="white" transform="translate(45.2227 28.8071) rotate(30)"/>
</clipPath>
</defs>
</svg>
