<svg width="64" height="64" viewBox="0 0 64 64" fill="none" xmlns="http://www.w3.org/2000/svg">
<rect width="64" height="64" rx="32" fill="white"/>
<g clip-path="url(#clip0_618_875)">
<path d="M24.4892 13.1411C24.2591 13.2153 23.9029 13.3712 23.7099 13.4825C23.272 13.7348 17.8466 19.1083 17.4978 19.6426C17.3642 19.843 17.1712 20.2141 17.0748 20.459C16.9115 20.8895 16.904 20.9934 16.8744 23.2423L16.8447 25.5801L16.4662 25.8399C15.5384 26.4782 14.4919 27.777 14.0466 28.8606C13.5345 30.1149 13.5568 29.7364 13.5568 36.6387V42.8731L13.7646 43.5411C14.5365 46.0126 16.4439 47.8235 18.8931 48.4024C19.7466 48.6102 20.0509 48.4766 20.0509 47.9051C20.0509 47.5712 19.8283 47.393 19.2197 47.2594C18.5294 47.1036 17.4681 46.584 16.8966 46.1239C15.9244 45.3298 15.1673 44.1571 14.8556 42.9548C14.7146 42.3907 14.7072 42.1458 14.7072 36.6016C14.7072 31.0649 14.7146 30.8126 14.8556 30.2485C15.3083 28.4895 16.4587 27.0868 18.0841 26.3149C19.3755 25.7063 19.0193 25.736 26.508 25.6915L33.1505 25.6544L33.5513 25.4317C33.9892 25.1942 34.3826 24.7192 34.5162 24.2813C34.5533 24.1403 34.6275 23.6727 34.6646 23.2423C34.7982 21.8692 35.199 21.0083 36.1564 20.0434C36.8912 19.3087 37.6408 18.8856 38.5759 18.6778C39.3849 18.4923 40.5353 18.5516 41.2626 18.8114C42.7544 19.3309 43.89 20.4665 44.4244 21.9731L44.6544 22.6114L44.6767 29.8255L44.6915 37.0395L43.1626 39.7485L41.6337 42.4575L40.8767 41.4778C40.0603 40.4239 39.808 40.1938 39.14 39.8821C38.7615 39.704 38.6279 39.6817 37.9005 39.6817C37.1658 39.6817 37.0396 39.704 36.6537 39.8821C36.0599 40.1641 35.4587 40.7505 35.1693 41.3442C34.9466 41.8044 34.9318 41.8786 34.9318 42.6505C34.9318 43.4149 34.9466 43.4965 35.1619 43.9493C35.2955 44.2165 35.9189 45.0997 36.5498 45.9161L37.7076 47.4005L29.5361 47.4376L21.372 47.4747L21.231 47.6528C21.038 47.8903 21.0529 48.2243 21.2755 48.4395L21.4537 48.6251H30.0556H38.6576L39.2439 49.3821C40.2458 50.6735 40.9287 51.0446 42.2052 50.9852C43.0958 50.9481 43.6748 50.6809 44.2537 50.0501C44.7658 49.486 50.2876 39.7337 50.4138 39.1548C50.4583 38.9469 50.488 38.4868 50.4658 38.138C50.4212 37.2993 50.1466 36.713 49.5158 36.134C48.9517 35.6145 48.4396 35.4067 47.5861 35.3622C46.9775 35.3251 46.6583 35.3919 46.0126 35.6739C45.8865 35.7258 45.879 35.3919 45.879 29.3505C45.879 25.2239 45.8494 22.8192 45.7974 22.5298C45.6712 21.8098 45.3818 21.0083 45.0107 20.3848C44.6025 19.6798 43.6748 18.7223 43.0068 18.3141L42.5392 18.0247V17.0153C42.5392 16.4587 42.5095 15.813 42.465 15.568C42.3017 14.5735 41.6708 13.72 40.758 13.2747C40.3201 13.0594 40.2087 13.0372 39.422 13.0149C38.6279 12.9852 38.5611 12.9926 38.4201 13.1485C38.2419 13.3415 38.2345 13.7571 38.4052 13.9501C38.5091 14.0614 38.6798 14.0985 39.1994 14.1356C39.9861 14.195 40.3201 14.3137 40.7134 14.6923C41.1884 15.1524 41.2998 15.4864 41.3369 16.6071L41.3665 17.5794L40.8619 17.4755C40.2236 17.3419 38.6873 17.3864 38.049 17.5571C37.804 17.6239 37.2548 17.8465 36.8244 18.0618C36.149 18.3958 35.9486 18.5442 35.3326 19.1602C34.1822 20.3032 33.6255 21.4758 33.4845 23.0641C33.4103 23.9102 33.299 24.1848 32.965 24.3852C32.7794 24.4891 32.1783 24.504 26.79 24.504C20.6521 24.504 19.5833 24.5411 18.663 24.8008C18.3662 24.8825 18.1064 24.9493 18.0841 24.9493C18.0099 24.9493 18.047 22.0622 18.1287 21.8544C18.24 21.5426 18.6333 21.1715 18.9376 21.0899C19.0787 21.0528 19.9025 21.0157 20.7634 21.0157C21.9732 21.0157 22.4185 20.986 22.7302 20.8969C23.8138 20.5778 24.6599 19.6352 24.8751 18.4923C24.9123 18.277 24.9494 17.4087 24.9494 16.5626C24.9494 15.093 24.9568 15.0188 25.1201 14.7813C25.3353 14.4548 25.6025 14.2692 25.9587 14.1876C26.1146 14.1505 28.6455 14.1133 31.5771 14.1133C36.8021 14.1133 36.8986 14.1133 37.047 13.9649C37.1361 13.8758 37.1955 13.72 37.1955 13.5567C37.1955 13.3934 37.1361 13.2376 37.047 13.1485C36.8986 13.0001 36.8021 13.0001 30.9091 13.0075C25.313 13.0075 24.8826 13.0149 24.4892 13.1411ZM23.747 16.9708C23.7173 18.5219 23.6802 18.6926 23.2423 19.1899C22.7451 19.754 22.604 19.7837 20.6298 19.8282L18.8634 19.8653L21.2978 17.4309L23.7248 15.004L23.747 15.2786C23.7619 15.4344 23.7619 16.1915 23.747 16.9708ZM48.2169 36.7055C48.6251 36.8911 49.0333 37.3067 49.1892 37.6852C49.3451 38.0637 49.3228 38.7762 49.1372 39.1473C48.5732 40.268 43.5708 49.011 43.3556 49.2485C42.6134 50.0723 41.3072 49.9981 40.5501 49.0852C39.6298 47.9645 36.3865 43.7118 36.2529 43.4372C35.9115 42.7692 36.0599 41.9602 36.6388 41.3813C37.0693 40.9508 37.4923 40.795 38.1083 40.8469C38.8134 40.9063 39.0732 41.1215 40.2384 42.6356C40.9212 43.5188 41.3591 44.0161 41.5001 44.0755C41.7451 44.1794 41.99 44.12 42.1755 43.9048C42.2423 43.8231 43.0587 42.413 43.9865 40.7579C44.9142 39.1028 45.7677 37.5962 45.8865 37.4106C46.3986 36.6016 47.3708 36.3048 48.2169 36.7055Z" fill="url(#paint0_linear_618_875)"/>
<path d="M26.107 20.0582C25.9586 20.177 25.9141 20.2734 25.9141 20.4961C25.9141 20.7188 25.9586 20.8152 26.107 20.934C26.3 21.0898 26.3816 21.0898 29.5656 21.0898H32.8238L33.002 20.9043C33.2617 20.652 33.2543 20.266 32.9945 20.0582C32.8016 19.9023 32.7199 19.9023 29.5508 19.9023C26.3816 19.9023 26.3 19.9023 26.107 20.0582Z" fill="url(#paint1_linear_618_875)"/>
</g>
<defs>
<linearGradient id="paint0_linear_618_875" x1="16.4121" y1="73.5277" x2="62.9761" y2="63.5143" gradientUnits="userSpaceOnUse">
<stop stop-color="#FF3939"/>
<stop offset="1" stop-color="#4844F2"/>
</linearGradient>
<linearGradient id="paint1_linear_618_875" x1="26.4771" y1="21.7943" x2="29.8593" y2="17.2063" gradientUnits="userSpaceOnUse">
<stop stop-color="#FF3939"/>
<stop offset="1" stop-color="#4844F2"/>
</linearGradient>
<clipPath id="clip0_618_875">
<rect width="38" height="38" fill="white" transform="translate(13 13)"/>
</clipPath>
</defs>
</svg>
