<svg width="241" height="57" viewBox="0 0 241 57" fill="none" xmlns="http://www.w3.org/2000/svg">
<path d="M35.0848 11.3592C35.034 7.92105 34.8781 4.48114 34.6604 0.994629C34.4646 1.03319 34.2589 1.06133 34.0551 1.0892C33.4529 1.17156 32.8672 1.25165 32.6033 1.59193C30.7005 4.04528 28.8655 6.5535 27.0304 9.06171C26.4457 9.86084 25.8611 10.66 25.2742 11.4573C25.3305 11.702 25.4001 11.9464 25.4697 12.1908L25.4697 12.1912C25.5914 12.6183 25.7131 13.0458 25.7634 13.4748C25.6825 12.8013 25.4142 12.1391 25.1651 11.5242C23.0555 14.2822 21.0555 16.9733 19.1167 19.8065C19.1614 19.97 19.2114 20.123 19.2588 20.2677C19.3588 20.5733 19.4466 20.8417 19.4459 21.0933C19.446 20.7232 19.2451 20.322 19.0086 19.874C16.4214 23.0258 14.0035 26.2521 11.5856 29.4785C11.5563 30.3873 11.5215 31.2962 11.4867 32.2049C11.3942 34.6189 11.3017 37.0328 11.3137 39.4463C11.318 40.2958 11.8503 41.1422 12.3845 41.9916L12.3854 41.993C12.4189 42.0463 12.4524 42.0996 12.4858 42.1528C15.1166 38.9382 17.5087 35.7212 19.9009 32.5043C19.0598 29.1592 18.9635 25.7854 19.3039 22.3881C18.9645 25.7847 19.071 29.1516 20.0111 32.43C22.3055 29.4374 24.4897 26.5186 26.5185 23.5612L26.4827 23.4928C26.2029 22.9597 25.9377 22.4541 25.8596 21.9482C25.9428 22.4746 26.2401 22.9942 26.6236 23.4984C29.2095 20.469 31.5541 17.4618 33.9559 14.381L33.9562 14.3805L34.2382 14.0189C34.3394 13.8107 34.4548 13.6094 34.5673 13.4131C34.7855 13.0321 34.993 12.6699 35.066 12.313C35.0041 12.6181 34.8455 12.9336 34.6665 13.2895C34.5261 13.5688 34.3731 13.873 34.2445 14.2167C34.177 24.4784 34.177 34.4588 34.177 44.4266H42.8077V1.04716H34.7723C34.8028 1.97774 34.836 2.90829 34.8692 3.83884L34.8692 3.83963C34.9587 6.34593 35.0481 8.85232 35.0848 11.3592Z" fill="url(#paint0_linear_330_137)"/>
<path d="M93.6973 40.799C94.4448 41.4119 94.9249 41.8054 95.4049 42.1989L95.458 41.8458C95.7314 40.0286 96.0059 38.2031 96.3009 36.2359C92.8778 31.9344 92.4608 27.2246 95.1412 22.1387L95.1397 22.1141C95.0586 20.7792 94.9849 19.5654 94.7973 18.3702C94.6906 17.6912 94.3948 17.0431 93.9092 16.3346C93.1863 15.0467 92.7383 13.8053 92.2716 12.5122H85.0286V56.9165H93.6973V40.799Z" fill="url(#paint1_linear_330_137)"/>
<path d="M56.0174 56.9946H47.9664V12.4499C48.5038 12.4499 49.0414 12.4478 49.5791 12.4456H49.5873C51.3106 12.4389 53.0352 12.4321 54.757 12.494C55.061 12.505 55.4848 13.0676 55.6071 13.4556C55.8258 14.1496 55.9093 14.888 56.0186 15.8538C56.0318 15.9704 56.0453 16.0903 56.0596 16.2139C56.0184 17.0314 55.9748 17.8216 55.9322 18.5923C55.8441 20.186 55.7607 21.6962 55.7139 23.1925C55.7637 21.6017 55.8553 20.0026 55.95 18.3487L55.9501 18.3465L55.9503 18.3432C55.9875 17.6933 56.0252 17.035 56.061 16.3654C57.5579 15.2337 59.0354 14.2784 60.5263 13.3461C60.8422 13.1486 61.1939 13.011 61.6291 12.8407L61.6297 12.8404C61.6866 12.8181 61.745 12.7953 61.805 12.7716C63.0273 14.7657 62.9143 16.8239 62.3653 19.1592C58.771 20.0694 57.3722 22.8736 56.3412 25.8457C56.2689 25.6676 56.1763 25.489 56.0837 25.3105C55.9357 25.0253 55.7876 24.7399 55.7228 24.4565C55.7823 24.718 55.9127 24.9875 56.0545 25.2804C56.1653 25.5093 56.283 25.7526 56.3792 26.0176C56.4359 27.5921 56.4546 28.9948 56.3606 30.4815C56.1573 32.4551 56.0547 34.3438 55.9786 36.2336C55.9464 37.035 55.9079 37.8365 55.8694 38.6381L55.869 38.648L55.8684 38.6627C55.7656 40.8073 55.6628 42.9521 55.675 45.0959C55.6909 47.8696 55.7923 50.6425 55.8936 53.4154V53.4196C55.9371 54.6112 55.9806 55.803 56.0174 56.9946Z" fill="url(#paint2_linear_330_137)"/>
<path d="M196.293 27.1963C196.344 30.1817 195.894 32.9896 194.352 35.5624C194.62 37.5131 194.889 39.4639 195.345 41.514C196.396 40.8202 196.541 41.3449 196.767 42.1714L196.775 42.1982C196.999 43.0149 197.444 44.3717 197.898 44.4178C199.563 44.5876 201.247 44.5639 202.949 44.5399C203.55 44.5315 204.153 44.523 204.759 44.523V12.191H196.27C196.27 13.6695 196.265 15.1335 196.259 16.5871V16.7366C196.247 20.2641 196.234 23.7308 196.293 27.1963Z" fill="url(#paint3_linear_330_137)"/>
<path d="M184.329 44.5504C179.356 43.8503 175.502 40.1991 175.177 34.5956C174.875 29.4084 174.943 24.1989 175.011 18.9342V18.9163C175.041 16.6449 175.07 14.3632 175.07 12.0686H183.315L183.315 13.9655C183.315 15.1234 183.315 16.2639 183.315 17.4045C183.315 18.4834 183.3 19.5633 183.285 20.6433C183.249 23.1764 183.213 25.7096 183.375 28.2295C183.466 29.6567 183.756 31.0706 184.056 32.5335C184.265 33.55 184.478 34.5901 184.633 35.6747C184.534 36.5116 184.476 37.2055 184.446 37.8652C184.477 37.2124 184.539 36.5453 184.656 35.8172C186.764 37.256 188.91 38.2761 191.437 37.2865C192.073 37.0379 192.656 36.6505 193.273 36.2403C193.58 36.0363 193.896 35.8266 194.231 35.6256C194.519 37.0244 194.74 38.4579 194.974 39.9693C195.056 40.4975 195.139 41.0351 195.227 41.5841C192.328 45.0026 188.549 45.2056 184.458 44.6346C184.374 42.8366 184.378 41.0997 184.408 39.3722C184.387 40.5287 184.37 41.6854 184.354 42.842V42.8448C184.346 43.4132 184.337 43.982 184.329 44.5504Z" fill="url(#paint4_linear_330_137)"/>
<path d="M240.624 23.1418C240.123 17.4475 237.139 14.0114 232.119 12.6552C231.918 15.7181 231.716 18.781 231.42 22.0996C231.499 22.6805 231.64 23.2083 231.773 23.708C231.936 24.3163 232.087 24.8833 232.102 25.4539C232.218 29.679 232.27 33.9058 232.321 38.1324V38.138C232.338 39.4821 232.354 40.826 232.373 42.17C232.379 42.6694 232.378 43.1689 232.376 43.6688V43.6774C232.375 43.7765 232.375 43.8756 232.375 43.9747L232.374 44.0958C232.374 44.188 232.374 44.2803 232.374 44.3725H240.986C240.986 43.4707 240.99 42.585 240.993 41.7104V41.6645C241.001 39.7575 241.008 37.9029 240.977 36.0492C240.959 34.9313 240.952 33.812 240.945 32.6926C240.924 29.5018 240.903 26.3094 240.624 23.1418Z" fill="url(#paint5_linear_330_137)"/>
<path d="M70.1966 12.628C75.5955 14.1032 78.671 17.9217 79.9825 23.2284C81.4409 29.13 80.9392 34.8599 77.0611 39.7579C76.0524 41.0315 74.5992 41.9378 73.1619 42.8341C72.834 43.0386 72.507 43.2426 72.1862 43.4503C72.1157 41.7293 72.1004 40.0546 72.0852 38.4007V38.4002L72.0851 38.3878C72.0797 37.8006 72.0744 37.216 72.0665 36.6329C72.0828 38.0928 72.0764 39.5627 72.0699 41.0627L72.0699 41.0652C72.0665 41.8562 72.063 42.6556 72.0628 43.4663C69.5461 44.9805 66.8463 45.057 63.9614 44.7641C63.8331 42.5181 63.8454 40.3324 64.0114 37.942C67.7027 37.768 69.7345 35.5833 71.2843 32.6902C71.3662 32.8955 71.4686 33.1002 71.5709 33.3049C71.6956 33.5544 71.8204 33.8038 71.9081 34.0543C71.8359 33.8426 71.7383 33.6269 71.6364 33.4016C71.5135 33.1299 71.3842 32.8442 71.2858 32.5347C72.3496 28.7247 72.0456 25.2429 70.0702 21.7826C70.1403 18.6011 70.1686 15.6145 70.1966 12.628Z" fill="url(#paint6_linear_330_137)"/>
<path d="M116.8 22.4472C115.783 18.5059 113.505 15.3848 109.751 13.6062C109.717 14.4343 109.685 15.2625 109.653 16.0907C109.563 18.392 109.473 20.6934 109.345 22.9925C109.307 23.68 109.018 24.3529 108.692 25.0686C109.259 27.9624 109.013 30.7387 107.84 33.5739C107.965 36.9802 108.114 40.2509 108.411 43.6853C108.703 43.5304 108.999 43.3784 109.295 43.2262C110.81 42.4465 112.335 41.6618 113.424 40.4638C118.171 35.2401 118.476 28.9441 116.8 22.4472Z" fill="url(#paint7_linear_330_137)"/>
<path d="M163.079 44.4495C158.279 44.5439 155.114 42.2648 154.763 37.4682C154.473 33.5025 154.539 29.5095 154.606 25.4323L154.606 25.4312C154.635 23.6415 154.665 21.8357 154.665 20.0087C157.234 20.0087 159.749 20.0087 162.527 20.058C162.555 20.0623 162.58 20.0664 162.604 20.0702L162.662 20.0793C162.457 19.8434 162.289 19.5926 162.128 19.3509C161.92 19.0401 161.723 18.7444 161.468 18.5152C160.513 17.6564 159.541 16.8176 158.568 15.9789L158.568 15.9787L158.567 15.978C157.507 15.0629 156.446 14.1479 155.408 13.2068C154.99 12.8286 154.574 12.1887 154.557 11.6558C154.493 9.70599 154.502 7.75369 154.511 5.74652C154.514 5.03092 154.517 4.30834 154.517 3.57641H163.133C163.133 4.19257 163.131 4.80273 163.128 5.40852C163.122 6.97707 163.116 8.51635 163.152 10.0546C163.165 10.6043 163.343 11.15 163.568 11.8358L163.568 11.8372C163.605 11.9515 163.644 12.0698 163.683 12.1926C163.941 14.8776 164.061 17.3425 164.18 19.8069L164.181 19.8273L164.181 19.8274C163.863 19.8805 163.544 19.9336 163.127 20.0564C163.011 20.0975 162.937 20.1093 162.845 20.1062C162.939 20.1188 162.983 20.1224 163.028 20.126C163.038 21.2833 163.045 22.4407 163.051 23.5981C163.07 26.7749 163.088 29.9517 163.161 33.1271C163.174 33.7048 163.291 34.2799 163.418 34.8979C163.518 35.3874 163.623 35.9039 163.687 36.4697C163.444 39.2934 163.262 41.8684 163.08 44.4427L163.079 44.4495Z" fill="url(#paint8_linear_330_137)"/>
<path d="M135.054 18.3675C135.447 18.3127 135.84 18.2579 136.22 18.1789V18.1663C136.22 16.2663 136.22 14.3658 136.051 12.2546C132.728 11.9356 129.7 12.4428 126.968 14.1349C123.608 16.2155 121.877 19.3076 122.187 23.3197C122.505 27.4449 125.231 29.4618 128.87 30.4347C129.686 30.6527 130.519 30.8067 131.351 30.9607C131.731 31.0311 132.111 31.1014 132.49 31.1779V31.1771C132.5 28.9478 132.51 26.7183 132.429 24.2256C132.17 23.8476 131.845 23.4949 131.544 23.1668C131.027 22.6053 130.578 22.1159 130.633 21.696C130.762 20.7199 131.62 19.544 132.491 19.0466C133.237 18.6212 134.145 18.4943 135.054 18.3675Z" fill="url(#paint9_linear_330_137)"/>
<path d="M213.804 12.0955C213.978 12.0872 214.153 12.082 214.327 12.0768C214.709 12.0655 215.091 12.0541 215.469 12.0094C217.173 11.8075 218.275 12.1772 217.973 14.3198C217.921 14.6867 218.085 15.0854 218.268 15.5297L218.268 15.5302C218.358 15.7486 218.453 15.9781 218.528 16.2202L218.529 16.2196C219.611 15.3987 220.625 14.6302 221.829 13.9769C222.086 15.0685 222.158 16.0445 222.217 17.0213C222.261 17.7577 222.3 18.4945 222.338 19.2313C222.353 19.5308 222.369 19.8303 222.385 20.1298C219.886 22.0239 218.97 24.6541 218.973 27.7248C218.978 31.5011 218.977 35.2775 218.976 39.1585V39.3841C218.976 41.0725 218.975 42.7811 218.975 44.5184C217.544 44.5184 216.218 44.5184 214.722 44.3127C214.609 38.0701 214.586 31.9189 214.563 25.7985C214.559 24.8401 214.556 23.8825 214.552 22.9254C214.567 27.6836 214.563 32.4527 214.558 37.2571L214.558 37.3066C214.556 39.6224 214.554 41.9465 214.554 44.2815C213.262 44.4563 211.969 44.4563 210.517 44.4563V12.0308C211.527 12.0308 212.496 12.0308 213.636 12.0631L213.675 12.2074C213.7 12.2974 213.724 12.3872 213.749 12.4769L213.749 12.4784C214.032 13.5168 214.312 14.5415 214.443 15.5635C214.361 14.8867 214.221 14.2104 214.081 13.534C213.982 13.0545 213.883 12.5751 213.804 12.0955Z" fill="url(#paint10_linear_330_137)"/>
<path d="M140.514 37.7639C140.301 37.9021 140.087 38.0403 139.887 38.1893L139.887 38.2026C139.902 40.2273 139.917 42.253 140.104 44.4316C143.444 44.1634 146.245 42.976 148.478 40.5606C151.877 36.8838 152.053 28.7014 145.328 26.6049C144.198 26.2526 143.051 25.9569 141.904 25.6613C141.377 25.5254 140.85 25.3895 140.325 25.2482L140.325 25.2492C140.214 27.5012 140.103 29.7532 140.07 32.2483C142.303 33.5454 142.99 35.2199 141.781 36.7406C141.45 37.1574 140.982 37.4607 140.514 37.7639Z" fill="url(#paint11_linear_330_137)"/>
<path d="M136.362 18.2155C136.22 16.2753 136.221 14.3716 136.221 12.2886V12.2868C140.047 11.9947 143.575 12.9039 146.663 15.3018C148.865 17.0119 149.914 19.3397 150.248 22.3984C149.651 22.3984 149.061 22.3994 148.475 22.4005L148.474 22.4005C146.556 22.4039 144.687 22.4072 142.818 22.3734C142.523 22.368 142.066 22.0855 141.968 21.8214C141.006 19.2296 138.853 18.5954 136.362 18.2155Z" fill="url(#paint12_linear_330_137)"/>
<path d="M108.274 43.7131C108.114 40.2509 107.965 36.9802 107.816 33.7095C104.545 38.0807 100.784 38.9066 96.428 36.2869C95.989 38.3306 95.698 40.2649 95.4638 42.2972C99.4915 45.4037 103.786 45.5542 108.274 43.7131Z" fill="url(#paint13_linear_330_137)"/>
<path d="M11.391 34.3024C11.4323 32.7069 11.4732 31.1199 11.4707 29.5498C7.684 34.4619 4.00887 39.3033 0.0358807 44.537L0.0355746 44.5374L0 44.5843C0.999108 44.5843 1.94892 44.5703 2.86406 44.5569C4.89124 44.5271 6.74834 44.4998 8.59442 44.6323C10.5663 44.7736 11.7658 44.0396 12.3783 42.2165C12.2739 41.9975 12.1623 41.782 12.052 41.5691C11.6753 40.8417 11.3146 40.145 11.3111 39.4463C11.3025 37.7286 11.3469 36.0106 11.391 34.3024Z" fill="url(#paint14_linear_330_137)"/>
<path d="M56.1599 56.9862C55.8954 53.0284 55.6977 49.0629 55.675 45.0959C55.6628 42.9521 55.7656 40.8073 55.8684 38.6627C55.9072 37.853 55.946 37.0432 55.9786 36.2336C56.0547 34.3438 56.1576 32.4551 56.4363 30.5962C57.4359 35.0374 59.5266 37.1158 63.8562 37.9801C63.8439 40.3324 63.8315 42.5182 63.8192 44.7039C61.0933 44.478 58.9276 43.0804 56.7843 40.9777C56.7594 41.251 56.7327 41.4917 56.7085 41.711L56.7083 41.7123L56.7083 41.713C56.6621 42.1299 56.6245 42.4696 56.6235 42.8096C56.6188 44.4419 56.6186 46.0744 56.6185 47.7069C56.6182 50.1974 56.618 52.6879 56.6015 55.1784C56.5978 55.7791 56.4064 56.3783 56.1599 56.9862Z" fill="url(#paint15_linear_330_137)"/>
<path d="M222.531 20.1108C222.346 19.1686 222.289 18.2099 222.233 17.2505C222.228 17.1741 222.223 17.0977 222.219 17.0213C222.16 16.0445 222.088 15.0685 221.955 13.9287C225.026 11.756 228.413 11.8424 231.995 12.5966C231.918 15.7181 231.716 18.781 231.397 21.9538C228.688 19.1998 226.421 18.6804 222.531 20.1108Z" fill="url(#paint16_linear_330_137)"/>
<path d="M130.626 44.1024C125.867 43.3356 121.061 38.4632 121.791 33.8859C122.351 33.8859 122.913 33.8838 123.477 33.8817H123.483C125.289 33.8751 127.113 33.8683 128.935 33.9289C129.242 33.939 129.578 34.4296 129.828 34.7938C129.844 34.8168 129.859 34.8393 129.874 34.8611C130.261 35.4226 130.57 36.0408 130.86 36.8564C130.747 39.4193 130.687 41.7609 130.626 44.1024Z" fill="url(#paint17_linear_330_137)"/>
<path d="M109.343 22.9925C109.518 19.866 109.621 16.7354 109.658 13.5085C107.139 12.9773 104.71 12.5437 102.282 12.1101L102.123 12.0908C101.999 14.3417 101.864 16.6235 101.74 19.0273C105.102 19.6887 107.449 21.553 108.586 24.9869C109.016 24.3529 109.305 23.68 109.343 22.9925Z" fill="url(#paint18_linear_330_137)"/>
<path d="M130.756 44.1721C130.687 41.7609 130.747 39.4193 130.916 36.9771C133.671 38.6875 136.535 39.0913 139.739 38.2247C139.885 40.0192 139.912 41.8427 139.94 43.7775C139.943 43.9922 139.946 44.2086 139.949 44.4262C136.941 44.4643 133.914 44.3527 130.756 44.1721Z" fill="url(#paint19_linear_330_137)"/>
<path d="M69.9664 21.6984C70.141 18.6011 70.1693 15.6145 70.05 12.571C67.2289 11.8797 64.5697 11.7487 61.9426 12.7494C63.0285 14.7657 62.783 16.8758 62.3653 19.1592C65.224 18.9818 67.7799 19.5898 69.9664 21.6984Z" fill="url(#paint20_linear_330_137)"/>
<path d="M164.319 19.8927C164.062 17.3561 163.941 14.8849 163.818 12.2468C166.083 12.0799 168.352 12.0799 170.748 12.0799V19.958C168.626 19.958 166.541 19.958 164.319 19.8927Z" fill="url(#paint21_linear_330_137)"/>
<path d="M139.972 32.1633C140.103 29.7528 140.214 27.5006 140.188 25.196C137.553 24.7951 135.053 24.4465 132.537 24.2934C132.51 26.7186 132.501 28.9483 132.624 31.2468C135.155 31.651 137.553 31.9862 139.972 32.1633Z" fill="url(#paint22_linear_330_137)"/>
<path d="M163.25 44.4818C163.259 41.8729 163.442 39.2959 163.736 36.6073C164.421 36.6695 165.071 36.7866 165.708 36.9013C166.253 36.9994 166.788 37.0958 167.327 37.1547C168.022 37.2305 168.726 37.2137 169.496 37.1954L169.496 37.1954C169.855 37.1868 170.229 37.1779 170.622 37.1779C170.622 39.5294 170.622 41.6527 170.508 43.9863L170.442 44.0709C170.279 44.2793 170.217 44.3585 170.175 44.4563L170.101 44.457C167.874 44.4758 165.646 44.4947 163.25 44.4818Z" fill="url(#paint23_linear_330_137)"/>
<path d="M101.74 19.0273C102.03 16.611 102.154 14.36 102.123 12.0908C101.83 12.1423 101.567 12.2145 101.32 12.2824C100.994 12.3718 100.697 12.4534 100.396 12.4699C97.6071 12.6228 95.5835 14.1138 94.0419 16.3062C94.397 17.0431 94.6928 17.6912 94.7995 18.3702C94.9323 19.2167 95.008 20.0724 95.0838 20.9281C95.1157 21.2881 95.1476 21.6484 95.1837 22.0076C96.9081 20.1085 98.9798 19.0312 101.74 19.0273Z" fill="url(#paint24_linear_330_137)"/>
<path d="M170.275 44.4582C170.221 44.3462 170.295 44.2598 170.472 44.1619C170.492 44.2381 170.434 44.3493 170.275 44.4582Z" fill="url(#paint25_linear_330_137)"/>
<defs>
<linearGradient id="paint0_linear_330_137" x1="-14.3168" y1="-9.37573" x2="216.973" y2="93.3717" gradientUnits="userSpaceOnUse">
<stop stop-color="#FF3939"/>
<stop offset="1" stop-color="#4844F2"/>
</linearGradient>
<linearGradient id="paint1_linear_330_137" x1="-14.3168" y1="-9.37573" x2="216.973" y2="93.3717" gradientUnits="userSpaceOnUse">
<stop stop-color="#FF3939"/>
<stop offset="1" stop-color="#4844F2"/>
</linearGradient>
<linearGradient id="paint2_linear_330_137" x1="-14.3168" y1="-9.37573" x2="216.973" y2="93.3717" gradientUnits="userSpaceOnUse">
<stop stop-color="#FF3939"/>
<stop offset="1" stop-color="#4844F2"/>
</linearGradient>
<linearGradient id="paint3_linear_330_137" x1="-14.3168" y1="-9.37573" x2="216.973" y2="93.3717" gradientUnits="userSpaceOnUse">
<stop stop-color="#FF3939"/>
<stop offset="1" stop-color="#4844F2"/>
</linearGradient>
<linearGradient id="paint4_linear_330_137" x1="-14.3168" y1="-9.37573" x2="216.973" y2="93.3717" gradientUnits="userSpaceOnUse">
<stop stop-color="#FF3939"/>
<stop offset="1" stop-color="#4844F2"/>
</linearGradient>
<linearGradient id="paint5_linear_330_137" x1="-14.3168" y1="-9.37573" x2="216.973" y2="93.3717" gradientUnits="userSpaceOnUse">
<stop stop-color="#FF3939"/>
<stop offset="1" stop-color="#4844F2"/>
</linearGradient>
<linearGradient id="paint6_linear_330_137" x1="-14.3168" y1="-9.37573" x2="216.973" y2="93.3717" gradientUnits="userSpaceOnUse">
<stop stop-color="#FF3939"/>
<stop offset="1" stop-color="#4844F2"/>
</linearGradient>
<linearGradient id="paint7_linear_330_137" x1="-14.3168" y1="-9.37573" x2="216.973" y2="93.3717" gradientUnits="userSpaceOnUse">
<stop stop-color="#FF3939"/>
<stop offset="1" stop-color="#4844F2"/>
</linearGradient>
<linearGradient id="paint8_linear_330_137" x1="-14.3168" y1="-9.37573" x2="216.973" y2="93.3717" gradientUnits="userSpaceOnUse">
<stop stop-color="#FF3939"/>
<stop offset="1" stop-color="#4844F2"/>
</linearGradient>
<linearGradient id="paint9_linear_330_137" x1="-14.3168" y1="-9.37573" x2="216.973" y2="93.3717" gradientUnits="userSpaceOnUse">
<stop stop-color="#FF3939"/>
<stop offset="1" stop-color="#4844F2"/>
</linearGradient>
<linearGradient id="paint10_linear_330_137" x1="-14.3168" y1="-9.37573" x2="216.973" y2="93.3717" gradientUnits="userSpaceOnUse">
<stop stop-color="#FF3939"/>
<stop offset="1" stop-color="#4844F2"/>
</linearGradient>
<linearGradient id="paint11_linear_330_137" x1="-14.3168" y1="-9.37573" x2="216.973" y2="93.3717" gradientUnits="userSpaceOnUse">
<stop stop-color="#FF3939"/>
<stop offset="1" stop-color="#4844F2"/>
</linearGradient>
<linearGradient id="paint12_linear_330_137" x1="-14.3168" y1="-9.37573" x2="216.973" y2="93.3717" gradientUnits="userSpaceOnUse">
<stop stop-color="#FF3939"/>
<stop offset="1" stop-color="#4844F2"/>
</linearGradient>
<linearGradient id="paint13_linear_330_137" x1="-14.3168" y1="-9.37573" x2="216.973" y2="93.3717" gradientUnits="userSpaceOnUse">
<stop stop-color="#FF3939"/>
<stop offset="1" stop-color="#4844F2"/>
</linearGradient>
<linearGradient id="paint14_linear_330_137" x1="-14.3168" y1="-9.37573" x2="216.973" y2="93.3717" gradientUnits="userSpaceOnUse">
<stop stop-color="#FF3939"/>
<stop offset="1" stop-color="#4844F2"/>
</linearGradient>
<linearGradient id="paint15_linear_330_137" x1="-14.3168" y1="-9.37573" x2="216.973" y2="93.3717" gradientUnits="userSpaceOnUse">
<stop stop-color="#FF3939"/>
<stop offset="1" stop-color="#4844F2"/>
</linearGradient>
<linearGradient id="paint16_linear_330_137" x1="-14.3168" y1="-9.37573" x2="216.973" y2="93.3717" gradientUnits="userSpaceOnUse">
<stop stop-color="#FF3939"/>
<stop offset="1" stop-color="#4844F2"/>
</linearGradient>
<linearGradient id="paint17_linear_330_137" x1="-14.3168" y1="-9.37573" x2="216.973" y2="93.3717" gradientUnits="userSpaceOnUse">
<stop stop-color="#FF3939"/>
<stop offset="1" stop-color="#4844F2"/>
</linearGradient>
<linearGradient id="paint18_linear_330_137" x1="-14.3168" y1="-9.37573" x2="216.973" y2="93.3717" gradientUnits="userSpaceOnUse">
<stop stop-color="#FF3939"/>
<stop offset="1" stop-color="#4844F2"/>
</linearGradient>
<linearGradient id="paint19_linear_330_137" x1="-14.3168" y1="-9.37573" x2="216.973" y2="93.3717" gradientUnits="userSpaceOnUse">
<stop stop-color="#FF3939"/>
<stop offset="1" stop-color="#4844F2"/>
</linearGradient>
<linearGradient id="paint20_linear_330_137" x1="-14.3168" y1="-9.37573" x2="216.973" y2="93.3717" gradientUnits="userSpaceOnUse">
<stop stop-color="#FF3939"/>
<stop offset="1" stop-color="#4844F2"/>
</linearGradient>
<linearGradient id="paint21_linear_330_137" x1="-14.3168" y1="-9.37573" x2="216.973" y2="93.3717" gradientUnits="userSpaceOnUse">
<stop stop-color="#FF3939"/>
<stop offset="1" stop-color="#4844F2"/>
</linearGradient>
<linearGradient id="paint22_linear_330_137" x1="-14.3168" y1="-9.37573" x2="216.973" y2="93.3717" gradientUnits="userSpaceOnUse">
<stop stop-color="#FF3939"/>
<stop offset="1" stop-color="#4844F2"/>
</linearGradient>
<linearGradient id="paint23_linear_330_137" x1="-14.3168" y1="-9.37573" x2="216.973" y2="93.3717" gradientUnits="userSpaceOnUse">
<stop stop-color="#FF3939"/>
<stop offset="1" stop-color="#4844F2"/>
</linearGradient>
<linearGradient id="paint24_linear_330_137" x1="-14.3168" y1="-9.37573" x2="216.973" y2="93.3717" gradientUnits="userSpaceOnUse">
<stop stop-color="#FF3939"/>
<stop offset="1" stop-color="#4844F2"/>
</linearGradient>
<linearGradient id="paint25_linear_330_137" x1="-14.3168" y1="-9.37573" x2="216.973" y2="93.3717" gradientUnits="userSpaceOnUse">
<stop stop-color="#FF3939"/>
<stop offset="1" stop-color="#4844F2"/>
</linearGradient>
</defs>
</svg>
