<svg width="95" height="94" viewBox="0 0 95 94" fill="none" xmlns="http://www.w3.org/2000/svg">
<g filter="url(#filter0_bd_330_206)">
<rect x="7" y="23.6667" width="66" height="66" rx="8" transform="rotate(-15 7 23.6667)" fill="white" fill-opacity="0.04" shape-rendering="crispEdges"/>
<g clip-path="url(#clip0_330_206)">
<path d="M42.2389 32.7649L42.2389 32.7649C42.4416 32.6838 43.1553 32.4947 43.9419 32.3103C44.7227 32.1272 45.4806 31.9708 45.7577 31.9421L45.7597 31.9419C50.2616 31.4573 54.4645 32.7924 57.8586 35.7863L42.2389 32.7649ZM42.2389 32.7649L42.2325 32.7674M42.2389 32.7649L42.2325 32.7674M42.2325 32.7674C42.1455 32.8008 41.9192 32.8936 41.6848 32.9897C41.6374 33.0091 41.5896 33.0287 41.5426 33.048L41.5397 33.0491M42.2325 32.7674L41.5397 33.0491M41.5397 33.0491C36.8862 34.9217 33.378 39.1499 32.3072 44.1922M41.5397 33.0491L32.3072 44.1922M46.3307 60.0968C46.121 60.1703 45.855 60.2585 45.6018 60.337C44.0007 60.8463 42.7236 60.8799 41.6506 60.2787L41.6499 60.2783C41.2266 60.0403 40.9899 59.8073 40.4491 59.1804L40.448 59.1791C39.7145 58.3229 39.2764 57.9733 38.8554 57.8022L38.8548 57.802C38.7505 57.7594 38.6346 57.7114 38.5258 57.6663C38.4024 57.6151 38.2881 57.5678 38.2101 57.5364L38.21 57.5365L38.202 57.5331C37.9919 57.4445 37.795 57.3205 37.6496 57.1845C37.5794 57.1188 37.498 57.0288 37.4413 56.9169C37.3908 56.8171 37.3054 56.5831 37.4458 56.3399C37.4995 56.2469 37.5718 56.1863 37.6001 56.1631C37.6395 56.1308 37.681 56.1024 37.7181 56.079C37.7929 56.0316 37.879 55.9859 37.961 55.9479L37.9697 55.9439L37.9786 55.9402C39.1526 55.4499 40.535 55.9655 41.7889 57.0506L41.7903 57.0518C42.3751 57.5615 42.847 57.774 43.3682 57.8328C43.5988 57.8566 43.9742 57.8043 44.4048 57.6663C44.8265 57.5311 45.2465 57.3312 45.5601 57.1082C45.577 57.0959 45.5923 57.0844 45.6062 57.0738C45.576 56.8026 45.5949 56.4905 45.6354 56.2059C45.6678 55.9779 45.7185 55.7376 45.7868 55.5111C43.4676 55.803 41.1599 55.3058 39.7574 54.1088L39.7572 54.1086C38.9353 53.4064 38.1535 52.3117 37.6155 51.1369L37.615 51.1358C37.4411 50.7536 37.236 50.1276 37.0733 49.5448C36.914 48.9742 36.7729 48.3659 36.756 48.0342L36.756 48.0334C36.702 46.9324 36.8504 45.9997 37.2402 45.0468L37.2416 45.0433C37.303 44.8964 37.3436 44.7985 37.3708 44.725C37.3746 44.7148 37.3779 44.7057 37.3808 44.6975C37.3803 44.6967 37.3798 44.6959 37.3793 44.6951L37.3792 44.6951L37.3756 44.6891C36.7572 43.6559 36.4642 42.6441 36.4552 41.4354C36.4532 41.2225 36.4537 41.0412 36.4627 40.8915C36.4714 40.7466 36.4896 40.5934 36.5407 40.4528C36.5989 40.2929 36.6971 40.1559 36.8447 40.0551C36.9716 39.9685 37.1098 39.9275 37.2054 39.9018C37.6511 39.7824 38.3308 39.7976 39.0273 39.8789C39.7454 39.9627 40.556 40.1263 41.3 40.3513L41.3014 40.3518L41.6088 40.4458L41.9208 40.2769C41.9209 40.2768 41.9211 40.2768 41.9212 40.2767C43.9782 39.1564 46.4703 38.4886 48.8119 38.4303C48.8121 38.4303 48.8122 38.4303 48.8124 38.4303L49.17 38.4204L49.3902 38.189C49.3905 38.1887 49.3907 38.1885 49.3909 38.1883C49.9956 37.5488 50.5933 37.0069 51.145 36.5944C51.6888 36.1877 52.2191 35.8829 52.6866 35.7537L52.6866 35.7537L52.6904 35.7526C52.8032 35.7224 52.9183 35.7052 53.0204 35.7005C53.0711 35.6982 53.1278 35.6986 53.1847 35.7049C53.226 35.7095 53.3296 35.7229 53.4334 35.7828L53.4573 35.7967L53.4796 35.8131C53.5543 35.868 53.6121 35.9394 53.6398 35.9741C53.6771 36.021 53.7162 36.0755 53.7548 36.132C53.8325 36.2458 53.9213 36.3875 54.0097 36.5368C54.1836 36.8304 54.374 37.1839 54.4841 37.4435C54.8369 38.2579 54.9653 38.9636 54.9527 39.9455L54.9527 39.946L54.9521 39.9907L55.2188 40.191L55.2189 40.191L55.2231 40.1943C56.6511 41.291 57.4916 42.7996 57.8386 44.8321C58.2985 47.5238 57.8941 49.5988 56.4559 51.1922C55.5295 52.2215 54.4713 52.9611 53.0779 53.5537C53.2214 53.6859 53.3616 53.8313 53.4591 53.9524C54.033 54.6632 54.1901 55.138 54.9066 57.812C55.2713 59.1731 55.4477 59.8223 55.5796 60.1605C55.635 60.3026 55.6671 60.3467 55.6744 60.3556C55.6819 60.3598 55.703 60.3706 55.7539 60.3921L55.7539 60.3921L55.7576 60.3937L55.7588 60.3942C55.7766 60.402 55.8131 60.4178 55.9318 60.3761C56.0741 60.326 56.2822 60.2099 56.6044 59.9787C58.446 58.6501 59.8071 57.1539 60.9288 55.2111L60.9291 55.2106C62.7571 52.053 63.4281 48.483 62.857 44.9728L62.8567 44.9714C62.7856 44.5259 62.5904 43.746 62.3633 42.9647C62.1358 42.1819 61.8905 41.4463 61.7276 41.0812C60.8122 39.0475 59.4728 37.2117 57.8587 35.7865L46.3307 60.0968ZM46.3307 60.0968L46.5992 61.0991C46.8336 61.9737 46.9362 62.3944 46.9563 62.631C46.9603 62.6779 46.9598 62.7066 46.9587 62.7221C46.9529 62.7279 46.9444 62.736 46.9322 62.7468L46.9252 62.7531L46.9252 62.7531C46.9021 62.7745 46.7906 62.8492 46.3966 62.8541C46.0174 62.8588 45.4707 62.7989 44.6865 62.6625C40.0509 61.8517 35.8089 58.6859 33.6926 54.4566L33.6919 54.4551C33.0915 53.265 32.8229 52.4976 32.4472 50.9531L46.3307 60.0968ZM32.3072 44.1922C31.811 46.5501 31.8465 48.4766 32.4471 50.9529L32.3072 44.1922ZM55.671 60.3535C55.6709 60.3535 55.6714 60.3539 55.673 60.3548C55.6719 60.354 55.6711 60.3535 55.671 60.3535Z" stroke="url(#paint0_linear_330_206)"/>
</g>
<rect x="7.61237" y="24.0203" width="65" height="65" rx="7.5" transform="rotate(-15 7.61237 24.0203)" stroke="url(#paint1_linear_330_206)" stroke-opacity="0.12" shape-rendering="crispEdges"/>
</g>
<defs>
<filter id="filter0_bd_330_206" x="-9" y="-9.41528" width="112.833" height="112.833" filterUnits="userSpaceOnUse" color-interpolation-filters="sRGB">
<feFlood flood-opacity="0" result="BackgroundImageFix"/>
<feGaussianBlur in="BackgroundImageFix" stdDeviation="8"/>
<feComposite in2="SourceAlpha" operator="in" result="effect1_backgroundBlur_330_206"/>
<feColorMatrix in="SourceAlpha" type="matrix" values="0 0 0 0 0 0 0 0 0 0 0 0 0 0 0 0 0 0 127 0" result="hardAlpha"/>
<feOffset/>
<feGaussianBlur stdDeviation="4.02174"/>
<feComposite in2="hardAlpha" operator="out"/>
<feColorMatrix type="matrix" values="0 0 0 0 1 0 0 0 0 1 0 0 0 0 1 0 0 0 0.08 0"/>
<feBlend mode="normal" in2="effect1_backgroundBlur_330_206" result="effect2_dropShadow_330_206"/>
<feBlend mode="normal" in="SourceGraphic" in2="effect2_dropShadow_330_206" result="shape"/>
</filter>
<linearGradient id="paint0_linear_330_206" x1="35.6756" y1="72.3118" x2="69.7868" y2="59.195" gradientUnits="userSpaceOnUse">
<stop stop-color="#FF3939"/>
<stop offset="1" stop-color="#4844F2"/>
</linearGradient>
<linearGradient id="paint1_linear_330_206" x1="3.07921" y1="11.4445" x2="78.1204" y2="19.1907" gradientUnits="userSpaceOnUse">
<stop stop-color="#FF3939"/>
<stop offset="1" stop-color="#4844F2"/>
</linearGradient>
<clipPath id="clip0_330_206">
<rect width="32" height="32" fill="white" transform="translate(27.8203 35.6875) rotate(-15)"/>
</clipPath>
</defs>
</svg>
