<svg width="64" height="64" viewBox="0 0 64 64" fill="none" xmlns="http://www.w3.org/2000/svg">
<rect width="64" height="64" rx="32" fill="white"/>
<g clip-path="url(#clip0_618_842)">
<path d="M17.5719 20.3107C17.4086 20.3627 17.2008 20.4963 17.1043 20.5928C16.9855 20.7041 16.2508 22.4705 14.9668 25.7361C13.3266 29.8775 13 30.7607 13 31.0725C13 31.4807 13.1781 31.8443 13.4602 32.0225C13.8387 32.26 16.9262 33.4104 17.1934 33.4104C17.3418 33.4104 17.5645 33.3584 17.6832 33.2916L17.9059 33.1803L19.2641 34.0338L20.6223 34.8947L20.4738 35.3178C20.0434 36.6018 20.8746 37.8783 22.2625 38.0564C22.5965 38.101 22.6484 38.1232 22.6484 38.2717C22.6484 39.0213 23.6652 39.9416 24.5039 39.9416H24.8379L24.9344 40.3275C24.9789 40.5428 25.1051 40.8396 25.209 41.0029C25.5281 41.4705 26.2703 41.8713 26.8418 41.8713C27.0496 41.8713 27.0719 41.901 27.1906 42.3018C27.4504 43.1924 28.2223 43.749 29.1871 43.749C29.907 43.749 30.3078 43.5338 30.9461 42.8064L31.191 42.5318L31.666 42.8732C32.3785 43.3779 32.6902 43.5041 33.3063 43.5041C33.9668 43.5041 34.427 43.3482 34.85 42.9771C35.1988 42.6729 35.5625 42.0346 35.5625 41.7377C35.5625 41.5893 35.5848 41.5744 35.7332 41.6189C35.8223 41.6486 36.1117 41.6709 36.3789 41.6709C37.4477 41.6635 38.3086 40.9807 38.5461 39.9342L38.6426 39.5334L39.0731 39.526C40.0973 39.5037 40.9805 38.7838 41.1883 37.8115C41.2477 37.5369 41.2551 37.5295 41.5668 37.5518C42.3164 37.5963 43.207 37.1955 43.6004 36.624C44.0012 36.0377 44.0902 35.4959 43.9344 34.4939C43.9195 34.39 44.1496 34.2045 44.9363 33.6998L45.9531 33.0467L46.2203 33.2248C46.6582 33.5217 46.9031 33.4771 48.7215 32.7721C50.4805 32.0818 50.718 31.9631 50.8887 31.6291C51.1188 31.1764 51.0445 30.8201 50.2875 28.8904C49.8125 27.6807 49.5156 27.0053 49.3895 26.8939C49.0555 26.5896 48.5508 26.7455 48.432 27.2057C48.4024 27.3244 48.6027 27.9182 49.1074 29.1799C49.4934 30.1744 49.7902 31.0131 49.7606 31.0428C49.7012 31.0947 47.1406 32.1115 46.9328 32.1635C46.8734 32.1783 46.1906 30.5455 44.9512 27.4061C43.9121 24.7713 43.066 22.6189 43.0809 22.6115C43.1774 22.5373 46.0348 21.4463 46.0496 21.4686C46.0645 21.4834 46.4059 22.3295 46.8067 23.3537C47.2074 24.3705 47.5785 25.2686 47.6453 25.3354C47.7121 25.417 47.8606 25.4689 48.0461 25.4689C48.4024 25.4689 48.625 25.2611 48.625 24.9271C48.625 24.801 48.2762 23.799 47.8383 22.708C46.9996 20.5779 46.9106 20.4295 46.3391 20.2811C46.1758 20.2365 45.9606 20.2291 45.8047 20.2662C45.4484 20.3553 42.5613 21.5057 42.3387 21.6467C42.0641 21.8248 41.8711 22.2033 41.8711 22.5521C41.8711 22.8564 41.8711 22.8639 41.4481 23.0197C39.6965 23.6803 39.4219 23.71 37.8484 23.4576C36.9578 23.3166 36.8762 23.3166 36.7055 23.4279C36.327 23.6729 36.2899 24.1701 36.6238 24.3854C36.8465 24.5338 38.5387 24.801 39.2586 24.801C39.9191 24.801 40.3496 24.7045 41.4703 24.2889C41.9156 24.1256 42.2867 24.0068 42.3016 24.0217C42.3758 24.0959 45.4188 31.8889 45.3891 31.9334C45.3742 31.9631 44.8621 32.3045 44.2461 32.6979C43.5707 33.1357 43.0957 33.3955 43.0363 33.3584C42.9918 33.3287 41.9156 32.5494 40.6613 31.6217L38.368 29.9295L37.3066 29.974C36.3789 30.0111 36.1563 29.9963 35.5402 29.8553C34.3824 29.5881 33.425 29.0611 32.4008 28.1334C31.7996 27.5842 31.5844 27.5025 30.9906 27.5693C30.7606 27.5916 30.5676 27.6732 30.382 27.8365C28.727 29.2318 27.3613 29.8553 26.4559 29.6326C26.018 29.5213 25.4984 29.2244 25.3871 29.024C25.2832 28.8236 25.3648 28.7346 26.0254 28.2893C27.2055 27.4877 28.393 26.508 30.1148 24.8975C30.6492 24.3928 31.2059 23.9326 31.3543 23.8732C31.718 23.7248 31.9481 23.7322 33.3434 23.9549C34.5383 24.1479 34.5457 24.1479 34.7387 24.0068C35.0356 23.7842 35.0504 23.183 34.7535 23.0271C34.568 22.9232 32.3266 22.5744 31.8738 22.5744C31.1316 22.5744 30.5602 22.849 29.677 23.6283L29.291 23.9771L28.7938 23.8361C28.059 23.6357 27.1684 23.5467 25.4316 23.4947C23.7246 23.4502 23.4648 23.4131 22.6707 23.0791L22.1289 22.8564V22.567C22.1289 22.2182 21.9805 21.899 21.7207 21.6986C21.5129 21.5354 18.4477 20.3107 18.084 20.2439C17.9652 20.2217 17.7277 20.2514 17.5719 20.3107ZM19.4719 22.0252C20.2586 22.3369 20.9117 22.5967 20.9191 22.6041C20.934 22.6115 20.0879 24.7713 19.0488 27.4061C17.8094 30.5529 17.1266 32.1783 17.0672 32.1635C16.748 32.1041 14.2246 31.0502 14.2246 30.976C14.2246 30.835 17.9281 21.4611 17.9875 21.4611C18.0098 21.4611 18.6777 21.7135 19.4719 22.0252ZM22.8711 24.4521C23.2125 24.5709 23.5688 24.608 25.0977 24.66C26.916 24.7193 28.1035 24.8381 28.1777 24.9568C28.252 25.0682 26.4559 26.5303 25.2016 27.3912C24.7563 27.6881 24.4742 27.9404 24.3777 28.126C23.8656 29.0314 24.2516 29.9369 25.3723 30.5084C26.8789 31.2654 28.7121 30.7904 30.7309 29.1057C30.9758 28.8979 31.1984 28.7346 31.2281 28.7346C31.2504 28.7346 31.4731 28.9201 31.718 29.1428C32.3117 29.692 32.9203 30.1002 33.7367 30.4861C34.8203 30.9982 35.4066 31.1244 36.8168 31.1615L38.034 31.1912L39.9637 32.6088C41.025 33.3881 42.0567 34.16 42.257 34.3232C42.8063 34.7537 42.9621 35.2361 42.7172 35.7557C42.4797 36.2529 41.8117 36.4682 41.3145 36.2084C41.1883 36.149 40.5203 35.6592 39.8301 35.1248C38.7316 34.2787 38.5313 34.1525 38.2938 34.1525C37.9375 34.1525 37.7149 34.3604 37.7149 34.6869C37.7149 34.8205 37.7445 34.9764 37.7816 35.0357C37.8188 35.0877 38.3086 35.4885 38.8727 35.9264C39.7039 36.5646 39.9191 36.765 39.9934 36.9803C40.2309 37.7076 39.5406 38.5018 38.8059 38.3385C38.5238 38.2791 38.2863 38.1232 37.0543 37.1658C36.2602 36.5572 36.0895 36.4533 35.852 36.4533C35.5031 36.4533 35.2656 36.676 35.2656 37.01C35.2656 37.2994 35.3473 37.3885 36.3641 38.1604C37.4402 38.9768 37.6332 39.3775 37.2547 39.9416C36.9875 40.3275 36.7277 40.4834 36.3566 40.4834C35.9633 40.4834 35.8148 40.4018 34.5977 39.4592C33.8629 38.8951 33.6328 38.7541 33.4324 38.7541C33.0688 38.7541 32.8758 38.9842 32.9055 39.3701C32.9277 39.6596 32.9648 39.7115 33.6106 40.2236C34.182 40.6764 34.3156 40.8248 34.375 41.0623C34.4789 41.4482 34.2711 41.9529 33.9149 42.1682C33.4844 42.4279 33.0836 42.376 32.5047 41.9752C32.2227 41.7896 32 41.6041 32 41.5744C32 41.5447 32.052 41.4779 32.1188 41.4186C32.3414 41.233 32.5418 40.7209 32.5715 40.2385C32.6234 39.5779 32.4082 39.0287 31.9555 38.6057C31.5621 38.2494 31.2801 38.1158 30.7531 38.0416L30.3746 37.9971L30.2633 37.6111C30.0109 36.7428 29.2539 36.1564 28.393 36.1564C28.0887 36.1564 28.0664 36.1416 28.0664 35.9486C28.0664 35.6146 27.7398 35.0135 27.391 34.724C27.057 34.4346 26.5078 34.2268 26.0848 34.2268C25.877 34.2268 25.8398 34.1971 25.8398 34.0561C25.8398 33.7666 25.4984 33.158 25.1719 32.8686C24.7488 32.4826 24.4148 32.349 23.8359 32.3416C23.0641 32.3268 22.7523 32.49 22.0176 33.2842C21.4684 33.8779 21.3719 33.9521 21.2605 33.8779C21.1863 33.826 20.5332 33.4104 19.8059 32.9576C19.0785 32.4975 18.4996 32.0818 18.5145 32.0447C18.6555 31.6885 21.3422 24.8752 21.498 24.4893L21.6984 23.992L22.077 24.1479C22.2922 24.2295 22.6484 24.3705 22.8711 24.4521ZM24.0883 33.5885C24.5707 33.7889 24.7934 34.3381 24.5633 34.7686C24.4445 34.9986 23.116 36.535 22.8934 36.7057C22.2551 37.1881 21.2754 36.4088 21.6242 35.6889C21.8098 35.3029 23.2348 33.6998 23.4945 33.5885C23.784 33.4623 23.7914 33.4623 24.0883 33.5885ZM26.4856 35.5627C26.6117 35.6369 26.7602 35.7779 26.8047 35.867C26.916 36.0674 26.916 36.4607 26.8121 36.6611C26.6711 36.9283 25.3129 38.4943 25.1125 38.6205C24.4594 39.051 23.5539 38.3311 23.8582 37.626C23.9621 37.3959 24.7191 36.4533 25.3129 35.8373C25.7359 35.3846 26.0699 35.3029 26.4856 35.5627ZM28.727 37.4553C28.9422 37.5592 29.1797 37.96 29.1797 38.2123C29.1797 38.4201 28.9273 38.7838 28.2297 39.6002C27.4504 40.5057 27.3539 40.5947 27.0496 40.6541C26.7453 40.7135 26.3148 40.5057 26.1738 40.2311C26.0254 39.9564 26.0328 39.5705 26.1887 39.3479C26.4484 38.9693 27.725 37.5295 27.8734 37.4404C28.0887 37.3143 28.4746 37.3217 28.727 37.4553ZM31.0352 39.4146C31.525 39.7709 31.5102 40.2682 30.9906 40.8916C30.1074 41.9455 29.6473 42.4205 29.4246 42.5096C28.7344 42.799 27.9922 41.8861 28.4152 41.2775C28.7641 40.7729 29.959 39.4443 30.1668 39.3256C30.4414 39.1697 30.7531 39.2068 31.0352 39.4146Z" fill="url(#paint0_linear_618_842)"/>
</g>
<defs>
<linearGradient id="paint0_linear_618_842" x1="15.9395" y1="57.6971" x2="60.4026" y2="41.7931" gradientUnits="userSpaceOnUse">
<stop stop-color="#FF3939"/>
<stop offset="1" stop-color="#4844F2"/>
</linearGradient>
<clipPath id="clip0_618_842">
<rect width="38" height="38" fill="white" transform="translate(13 13)"/>
</clipPath>
</defs>
</svg>
