<svg xmlns="http://www.w3.org/2000/svg" width="36" height="36" viewBox="0 0 36 36" fill="none">
  <path d="M17.9978 15.3322C16.5289 15.3322 15.3301 16.531 15.3301 18C15.3301 19.469 16.5289 20.6678 17.9978 20.6678C19.4668 20.6678 20.6656 19.469 20.6656 18C20.6656 16.531 19.4668 15.3322 17.9978 15.3322ZM25.9991 18C25.9991 16.8953 26.0091 15.8005 25.9471 14.6978C25.885 13.4169 25.5928 12.2801 24.6562 11.3435C23.7176 10.4049 22.5829 10.1147 21.302 10.0526C20.1973 9.99059 19.1026 10.0006 17.9999 10.0006C16.8951 10.0006 15.8004 9.99059 14.6977 10.0526C13.4168 10.1147 12.2801 10.4069 11.3435 11.3435C10.4049 12.2821 10.1147 13.4169 10.0526 14.6978C9.99059 15.8025 10.0006 16.8973 10.0006 18C10.0006 19.1027 9.99059 20.1995 10.0526 21.3022C10.1147 22.5831 10.4069 23.7199 11.3435 24.6565C12.2821 25.5951 13.4168 25.8853 14.6977 25.9474C15.8024 26.0094 16.8971 25.9994 17.9999 25.9994C19.1046 25.9994 20.1993 26.0094 21.302 25.9474C22.5829 25.8853 23.7196 25.5931 24.6562 24.6565C25.5948 23.7179 25.885 22.5831 25.9471 21.3022C26.0111 20.1995 25.9991 19.1047 25.9991 18ZM17.9978 22.1048C15.7264 22.1048 13.8932 20.2715 13.8932 18C13.8932 15.7285 15.7264 13.8952 17.9978 13.8952C20.2693 13.8952 22.1025 15.7285 22.1025 18C22.1025 20.2715 20.2693 22.1048 17.9978 22.1048ZM22.2707 14.6858C21.7403 14.6858 21.312 14.2575 21.312 13.7271C21.312 13.1968 21.7403 12.7685 22.2707 12.7685C22.801 12.7685 23.2293 13.1968 23.2293 13.7271C23.2294 13.853 23.2048 13.9778 23.1566 14.0942C23.1085 14.2105 23.0379 14.3163 22.9489 14.4053C22.8598 14.4944 22.7541 14.565 22.6377 14.6131C22.5213 14.6612 22.3966 14.6859 22.2707 14.6858Z" fill="white"/>
  <rect x="0.25" y="0.25" width="35.5" height="35.5" rx="17.75" stroke="white" stroke-opacity="0.5" stroke-width="0.5"/>
</svg>