<svg width="241" height="56" viewBox="0 0 241 56" fill="none" xmlns="http://www.w3.org/2000/svg">
<path d="M35.0848 10.3646C35.034 6.92642 34.8781 3.48651 34.6604 0C34.4646 0.0385658 34.2589 0.0666984 34.0551 0.0945706C33.4529 0.17693 32.8672 0.257017 32.6033 0.597298C30.7005 3.05066 28.8655 5.55887 27.0304 8.06708C26.4457 8.86621 25.8611 9.66534 25.2742 10.4627C25.3305 10.7074 25.4001 10.9518 25.4697 11.1962L25.4697 11.1966C25.5914 11.6237 25.7131 12.0512 25.7634 12.4802C25.6825 11.8066 25.4142 11.1444 25.1651 10.5296C23.0555 13.2876 21.0555 15.9787 19.1167 18.8118C19.1614 18.9753 19.2114 19.1284 19.2588 19.273C19.3588 19.5786 19.4466 19.8471 19.4459 20.0987C19.446 19.7286 19.2451 19.3274 19.0086 18.8793C16.4214 22.0311 14.0035 25.2575 11.5856 28.4839C11.5563 29.3927 11.5215 30.3015 11.4867 31.2103C11.3942 33.6243 11.3017 36.0382 11.3137 38.4517C11.318 39.3011 11.8503 40.1476 12.3845 40.997L12.3854 40.9984C12.4189 41.0517 12.4524 41.1049 12.4858 41.1582C15.1166 37.9435 17.5087 34.7266 19.9009 31.5096C19.0598 28.1646 18.9635 24.7908 19.3039 21.3935C18.9645 24.7901 19.071 28.157 20.0111 31.4354C22.3055 28.4428 24.4897 25.524 26.5185 22.5666L26.4827 22.4982C26.2029 21.965 25.9377 21.4595 25.8596 20.9536C25.9428 21.48 26.2401 21.9996 26.6236 22.5038C29.2095 19.4744 31.5541 16.4671 33.9559 13.3863L33.9562 13.3859L34.2382 13.0243C34.3394 12.8161 34.4548 12.6148 34.5673 12.4184C34.7855 12.0375 34.993 11.6752 35.066 11.3184C35.0041 11.6235 34.8455 11.9389 34.6665 12.2949C34.5261 12.5742 34.3731 12.8784 34.2445 13.2221C34.177 23.4838 34.177 33.4642 34.177 43.432H42.8077V0.0525336H34.7723C34.8028 0.983113 34.836 1.91366 34.8692 2.84421L34.8692 2.845C34.9587 5.3513 35.0481 7.85769 35.0848 10.3646Z" fill="url(#paint0_linear_618_718)"/>
<path d="M93.6973 39.8044C94.4448 40.4173 94.9249 40.8108 95.4049 41.2043L95.458 40.8512C95.7314 39.034 96.0059 37.2085 96.3009 35.2412C92.8778 30.9398 92.4608 26.2299 95.1412 21.1441L95.1397 21.1194C95.0586 19.7845 94.9849 18.5708 94.7973 17.3756C94.6906 16.6965 94.3948 16.0485 93.9092 15.34C93.1863 14.0521 92.7383 12.8107 92.2716 11.5175H85.0286V55.9219H93.6973V39.8044Z" fill="url(#paint1_linear_618_718)"/>
<path d="M56.0174 56H47.9664V11.4552C48.5038 11.4552 49.0414 11.4531 49.5791 11.451H49.5873C51.3106 11.4442 53.0352 11.4375 54.757 11.4994C55.061 11.5103 55.4848 12.073 55.6071 12.461C55.8258 13.1549 55.9093 13.8934 56.0186 14.8592C56.0318 14.9757 56.0453 15.0957 56.0596 15.2192C56.0184 16.0368 55.9748 16.827 55.9322 17.5976C55.8441 19.1914 55.7607 20.7016 55.7139 22.1979C55.7637 20.607 55.8553 19.0079 55.95 17.3541L55.9501 17.3518L55.9503 17.3486C55.9875 16.6987 56.0252 16.0404 56.061 15.3708C57.5579 14.239 59.0354 13.2837 60.5263 12.3515C60.8422 12.154 61.1939 12.0164 61.6291 11.846L61.6297 11.8458C61.6866 11.8235 61.745 11.8006 61.805 11.777C63.0273 13.771 62.9143 15.8293 62.3653 18.1646C58.771 19.0748 57.3722 21.8789 56.3412 24.851C56.2689 24.6729 56.1763 24.4944 56.0837 24.3159C55.9357 24.0307 55.7876 23.7453 55.7228 23.4618C55.7823 23.7233 55.9127 23.9928 56.0545 24.2858C56.1653 24.5147 56.283 24.758 56.3792 25.0229C56.4359 26.5974 56.4546 28.0001 56.3606 29.4869C56.1573 31.4605 56.0547 33.3491 55.9786 35.2389C55.9464 36.0404 55.9079 36.8419 55.8694 37.6435L55.869 37.6534L55.8684 37.6681C55.7656 39.8126 55.6628 41.9575 55.675 44.1013C55.6909 46.8749 55.7923 49.6479 55.8936 52.4208V52.425C55.9371 53.6166 55.9806 54.8083 56.0174 56Z" fill="url(#paint2_linear_618_718)"/>
<path d="M196.293 26.2016C196.344 29.1871 195.894 31.9949 194.352 34.5677C194.62 36.5185 194.889 38.4692 195.345 40.5194C196.396 39.8255 196.541 40.3503 196.767 41.1768L196.775 41.2035C196.999 42.0203 197.444 43.3771 197.898 43.4232C199.563 43.5929 201.247 43.5692 202.949 43.5453C203.55 43.5368 204.153 43.5284 204.759 43.5284V11.1963H196.27C196.27 12.6749 196.265 14.1389 196.259 15.5925V15.742C196.247 19.2694 196.234 22.7362 196.293 26.2016Z" fill="url(#paint3_linear_618_718)"/>
<path d="M184.329 43.5558C179.356 42.8556 175.502 39.2044 175.177 33.6009C174.875 28.4138 174.943 23.2043 175.011 17.9395V17.9217C175.041 15.6503 175.07 13.3686 175.07 11.0739H183.315L183.315 12.9709C183.315 14.1288 183.315 15.2693 183.315 16.4098C183.315 17.4888 183.3 18.5687 183.285 19.6486C183.249 22.1818 183.213 24.7149 183.375 27.2348C183.466 28.6621 183.756 30.076 184.056 31.5389C184.265 32.5554 184.478 33.5955 184.633 34.6801C184.534 35.517 184.476 36.2108 184.446 36.8706C184.477 36.2178 184.539 35.5507 184.656 34.8226C186.764 36.2614 188.91 37.2815 191.437 36.2918C192.073 36.0433 192.656 35.6559 193.273 35.2456C193.58 35.0417 193.896 34.832 194.231 34.631C194.519 36.0297 194.74 37.4632 194.974 38.9747C195.056 39.5028 195.139 40.0405 195.227 40.5895C192.328 44.0079 188.549 44.211 184.458 43.64C184.374 41.8419 184.378 40.1051 184.408 38.3776C184.387 39.5341 184.37 40.6908 184.354 41.8474V41.8502C184.346 42.4186 184.337 42.9874 184.329 43.5558Z" fill="url(#paint4_linear_618_718)"/>
<path d="M240.624 22.1472C240.123 16.4529 237.139 13.0168 232.119 11.6606C231.918 14.7235 231.716 17.7864 231.42 21.105C231.499 21.6859 231.64 22.2136 231.773 22.7134C231.936 23.3217 232.087 23.8887 232.102 24.4593C232.218 28.6844 232.27 32.9111 232.321 37.1378V37.1434C232.338 38.4874 232.354 39.8314 232.373 41.1754C232.379 41.6748 232.378 42.1743 232.376 42.6742V42.6827C232.375 42.7818 232.375 42.881 232.375 42.9801L232.374 43.1012C232.374 43.1934 232.374 43.2856 232.374 43.3779H240.986C240.986 42.4761 240.99 41.5904 240.993 40.7158V40.6699C241.001 38.7629 241.008 36.9083 240.977 35.0546C240.959 33.9366 240.952 32.8174 240.945 31.698C240.924 28.5071 240.903 25.3148 240.624 22.1472Z" fill="url(#paint5_linear_618_718)"/>
<path d="M70.1966 11.6333C75.5955 13.1086 78.671 16.9271 79.9825 22.2338C81.4409 28.1354 80.9392 33.8653 77.0611 38.7633C76.0524 40.0369 74.5992 40.9432 73.1619 41.8395C72.834 42.044 72.507 42.248 72.1862 42.4557C72.1157 40.7346 72.1004 39.06 72.0852 37.406V37.4055L72.0851 37.3932C72.0797 36.806 72.0744 36.2214 72.0665 35.6383C72.0828 37.0981 72.0764 38.5681 72.0699 40.0681L72.0699 40.0705C72.0665 40.8615 72.063 41.6609 72.0628 42.4717C69.5461 43.9858 66.8463 44.0624 63.9614 43.7695C63.8331 41.5235 63.8454 39.3377 64.0114 36.9474C67.7027 36.7733 69.7345 34.5887 71.2843 31.6955C71.3662 31.9009 71.4686 32.1056 71.5709 32.3103C71.6956 32.5597 71.8204 32.8092 71.9081 33.0597C71.8359 32.8479 71.7383 32.6322 71.6364 32.407C71.5135 32.1352 71.3842 31.8495 71.2858 31.5401C72.3496 27.7301 72.0456 24.2482 70.0702 20.788C70.1403 17.6065 70.1686 14.6199 70.1966 11.6333Z" fill="url(#paint6_linear_618_718)"/>
<path d="M116.8 21.4526C115.783 17.5112 113.505 14.3902 109.751 12.6116C109.717 13.4397 109.685 14.2679 109.653 15.096C109.563 17.3974 109.473 19.6988 109.345 21.9979C109.307 22.6854 109.018 23.3582 108.692 24.074C109.259 26.9678 109.013 29.744 107.84 32.5793C107.965 35.9856 108.114 39.2562 108.411 42.6907C108.703 42.5358 108.999 42.3838 109.295 42.2315C110.81 41.4519 112.335 40.6671 113.424 39.4692C118.171 34.2455 118.476 27.9495 116.8 21.4526Z" fill="url(#paint7_linear_618_718)"/>
<path d="M163.079 43.4548C158.279 43.5493 155.114 41.2702 154.763 36.4735C154.473 32.5079 154.539 28.5149 154.606 24.4376L154.606 24.4365C154.635 22.6469 154.665 20.841 154.665 19.0141C157.234 19.0141 159.749 19.0141 162.527 19.0633C162.555 19.0677 162.58 19.0718 162.604 19.0756L162.662 19.0847C162.457 18.8488 162.289 18.5979 162.128 18.3563C161.92 18.0454 161.723 17.7497 161.468 17.5206C160.513 16.6618 159.541 15.823 158.568 14.9843L158.568 14.984L158.567 14.9833C157.507 14.0683 156.446 13.1532 155.408 12.2121C154.99 11.834 154.574 11.1941 154.557 10.6612C154.493 8.71136 154.502 6.75906 154.511 4.75189C154.514 4.03629 154.517 3.31371 154.517 2.58179H163.133C163.133 3.19794 163.131 3.8081 163.128 4.41389C163.122 5.98244 163.116 7.52172 163.152 9.05999C163.165 9.6097 163.343 10.1554 163.568 10.8412L163.568 10.8425C163.605 10.9569 163.644 11.0751 163.683 11.198C163.941 13.8829 164.061 16.3479 164.18 18.8123L164.181 18.8327L164.181 18.8328C163.863 18.8859 163.544 18.939 163.127 19.0617C163.011 19.1029 162.937 19.1147 162.845 19.1116C162.939 19.1242 162.983 19.1278 163.028 19.1313C163.038 20.2887 163.045 21.4461 163.051 22.6035C163.07 25.7803 163.088 28.9571 163.161 32.1325C163.174 32.7102 163.291 33.2853 163.418 33.9033C163.518 34.3928 163.623 34.9093 163.687 35.4751C163.444 38.2988 163.262 40.8737 163.08 43.4481L163.079 43.4548Z" fill="url(#paint8_linear_618_718)"/>
<path d="M135.054 17.3729C135.447 17.3181 135.84 17.2632 136.22 17.1843V17.1717C136.22 15.2717 136.22 13.3712 136.051 11.2599C132.728 10.941 129.7 11.4482 126.968 13.1402C123.608 15.2209 121.877 18.313 122.187 22.325C122.505 26.4503 125.231 28.4672 128.87 29.44C129.686 29.6581 130.519 29.8121 131.351 29.9661C131.731 30.0364 132.111 30.1068 132.49 30.1832V30.1825C132.5 27.9531 132.51 25.7236 132.429 23.231C132.17 22.853 131.845 22.5003 131.544 22.1722C131.027 21.6106 130.578 21.1213 130.633 20.7014C130.762 19.7252 131.62 18.5494 132.491 18.0519C133.237 17.6265 134.145 17.4997 135.054 17.3729Z" fill="url(#paint9_linear_618_718)"/>
<path d="M213.804 11.1009C213.978 11.0925 214.153 11.0873 214.327 11.0822C214.709 11.0708 215.091 11.0595 215.469 11.0147C217.173 10.8128 218.275 11.1825 217.973 13.3252C217.921 13.6921 218.085 14.0908 218.268 14.5351L218.268 14.5356C218.358 14.754 218.453 14.9834 218.528 15.2255L218.529 15.225C219.611 14.4041 220.625 13.6355 221.829 12.9822C222.086 14.0739 222.158 15.0498 222.217 16.0267C222.261 16.7631 222.3 17.4999 222.338 18.2367C222.353 18.5362 222.369 18.8357 222.385 19.1351C219.886 21.0292 218.97 23.6595 218.973 26.7302C218.978 30.5065 218.977 34.2829 218.976 38.1638V38.3895C218.976 40.0779 218.975 41.7865 218.975 43.5238C217.544 43.5238 216.218 43.5238 214.722 43.3181C214.609 37.0754 214.586 30.9243 214.563 24.8038C214.559 23.8455 214.556 22.8878 214.552 21.9307C214.567 26.6889 214.563 31.4581 214.558 36.2625L214.558 36.3119C214.556 38.6278 214.554 40.9519 214.554 43.2868C213.262 43.4617 211.969 43.4617 210.517 43.4617V11.0361C211.527 11.0361 212.496 11.0361 213.636 11.0685L213.675 11.2128C213.7 11.3027 213.724 11.3926 213.749 11.4823L213.749 11.4838C214.032 12.5222 214.312 13.5468 214.443 14.5689C214.361 13.8921 214.221 13.2157 214.081 12.5394C213.982 12.0599 213.883 11.5805 213.804 11.1009Z" fill="url(#paint10_linear_618_718)"/>
<path d="M140.514 36.7693C140.301 36.9075 140.087 37.0457 139.887 37.1946L139.887 37.208C139.902 39.2326 139.917 41.2584 140.104 43.4369C143.444 43.1688 146.245 41.9814 148.478 39.5659C151.877 35.8892 152.053 27.7068 145.328 25.6103C144.198 25.258 143.051 24.9623 141.904 24.6666C141.377 24.5308 140.85 24.3949 140.325 24.2536L140.325 24.2546C140.214 26.5066 140.103 28.7586 140.07 31.2537C142.303 32.5507 142.99 34.2253 141.781 35.746C141.45 36.1628 140.982 36.4661 140.514 36.7693Z" fill="url(#paint11_linear_618_718)"/>
<path d="M136.362 17.2208C136.22 15.2806 136.221 13.377 136.221 11.294V11.2921C140.047 11 143.575 11.9093 146.663 14.3072C148.865 16.0172 149.914 18.3451 150.248 21.4038C149.651 21.4038 149.061 21.4048 148.475 21.4059L148.474 21.4059C146.556 21.4093 144.687 21.4126 142.818 21.3788C142.523 21.3734 142.066 21.0908 141.968 20.8267C141.006 18.235 138.853 17.6007 136.362 17.2208Z" fill="url(#paint12_linear_618_718)"/>
<path d="M108.274 42.7185C108.114 39.2562 107.965 35.9856 107.816 32.7149C104.545 37.0861 100.784 37.9119 96.428 35.2923C95.989 37.336 95.698 39.2703 95.4638 41.3026C99.4915 44.4091 103.786 44.5595 108.274 42.7185Z" fill="url(#paint13_linear_618_718)"/>
<path d="M11.391 33.3078C11.4323 31.7123 11.4732 30.1253 11.4707 28.5551C7.684 33.4673 4.00887 38.3087 0.0358807 43.5424L0.0355746 43.5428L0 43.5897C0.999108 43.5897 1.94892 43.5757 2.86406 43.5623C4.89124 43.5325 6.74834 43.5051 8.59442 43.6377C10.5663 43.779 11.7658 43.045 12.3783 41.2218C12.2739 41.0028 12.1623 40.7873 12.052 40.5744C11.6753 39.847 11.3146 39.1504 11.3111 38.4517C11.3025 36.734 11.3469 35.016 11.391 33.3078Z" fill="url(#paint14_linear_618_718)"/>
<path d="M56.1599 55.9916C55.8954 52.0338 55.6977 48.0683 55.675 44.1013C55.6628 41.9575 55.7656 39.8126 55.8684 37.6681C55.9072 36.8583 55.946 36.0485 55.9786 35.2389C56.0547 33.3491 56.1576 31.4605 56.4363 29.6016C57.4359 34.0428 59.5266 36.1212 63.8562 36.9855C63.8439 39.3377 63.8315 41.5235 63.8192 43.7093C61.0933 43.4834 58.9276 42.0858 56.7843 39.983C56.7594 40.2564 56.7327 40.4971 56.7085 40.7164L56.7083 40.7176L56.7083 40.7184C56.6621 41.1353 56.6245 41.475 56.6235 41.8149C56.6188 43.4473 56.6186 45.0798 56.6185 46.7122C56.6182 49.2028 56.618 51.6933 56.6015 54.1837C56.5978 54.7845 56.4064 55.3837 56.1599 55.9916Z" fill="url(#paint15_linear_618_718)"/>
<path d="M222.531 19.1162C222.346 18.1739 222.289 17.2152 222.233 16.2559C222.228 16.1795 222.223 16.103 222.219 16.0266C222.16 15.0498 222.088 14.0739 221.955 12.9341C225.026 10.7614 228.413 10.8478 231.995 11.602C231.918 14.7235 231.716 17.7864 231.397 20.9592C228.688 18.2052 226.421 17.6858 222.531 19.1162Z" fill="url(#paint16_linear_618_718)"/>
<path d="M130.626 43.1078C125.867 42.341 121.061 37.4685 121.791 32.8913C122.351 32.8913 122.913 32.8892 123.477 32.8871H123.483C125.289 32.8804 127.113 32.8737 128.935 32.9343C129.242 32.9444 129.578 33.435 129.828 33.7992C129.844 33.8221 129.859 33.8446 129.874 33.8665C130.261 34.4279 130.57 35.0462 130.86 35.8618C130.747 38.4247 130.687 40.7662 130.626 43.1078Z" fill="url(#paint17_linear_618_718)"/>
<path d="M109.343 21.9979C109.518 18.8714 109.621 15.7407 109.658 12.5139C107.139 11.9827 104.71 11.5491 102.282 11.1155L102.123 11.0961C101.999 13.3471 101.864 15.6288 101.74 18.0327C105.102 18.6941 107.449 20.5584 108.586 23.9923C109.016 23.3582 109.305 22.6854 109.343 21.9979Z" fill="url(#paint18_linear_618_718)"/>
<path d="M130.756 43.1775C130.687 40.7662 130.747 38.4247 130.916 35.9825C133.671 37.6929 136.535 38.0967 139.739 37.2301C139.885 39.0246 139.912 40.8481 139.94 42.7829C139.943 42.9976 139.946 43.214 139.949 43.4316C136.941 43.4697 133.914 43.3581 130.756 43.1775Z" fill="url(#paint19_linear_618_718)"/>
<path d="M69.9664 20.7037C70.141 17.6065 70.1693 14.6199 70.05 11.5763C67.2289 10.8851 64.5697 10.7541 61.9426 11.7548C63.0285 13.771 62.783 15.8812 62.3653 18.1646C65.224 17.9871 67.7799 18.5952 69.9664 20.7037Z" fill="url(#paint20_linear_618_718)"/>
<path d="M164.319 18.898C164.062 16.3615 163.941 13.8903 163.818 11.2522C166.083 11.0852 168.352 11.0852 170.748 11.0852V18.9634C168.626 18.9634 166.541 18.9634 164.319 18.898Z" fill="url(#paint21_linear_618_718)"/>
<path d="M139.972 31.1687C140.103 28.7582 140.214 26.506 140.188 24.2013C137.553 23.8005 135.053 23.4519 132.537 23.2988C132.51 25.724 132.501 27.9537 132.624 30.2522C135.155 30.6564 137.553 30.9916 139.972 31.1687Z" fill="url(#paint22_linear_618_718)"/>
<path d="M163.25 43.4872C163.259 40.8782 163.442 38.3012 163.736 35.6126C164.421 35.6749 165.071 35.792 165.708 35.9067C166.253 36.0048 166.788 36.1012 167.327 36.16C168.022 36.2359 168.726 36.2191 169.496 36.2007L169.496 36.2007C169.855 36.1922 170.229 36.1833 170.622 36.1833C170.622 38.5347 170.622 40.6581 170.508 42.9916L170.442 43.0762C170.279 43.2847 170.217 43.3638 170.175 43.4617L170.101 43.4623C167.874 43.4812 165.646 43.5 163.25 43.4872Z" fill="url(#paint23_linear_618_718)"/>
<path d="M101.74 18.0327C102.03 15.6164 102.154 13.3654 102.123 11.0961C101.83 11.1477 101.567 11.2199 101.32 11.2878C100.994 11.3771 100.697 11.4588 100.396 11.4753C97.6071 11.6282 95.5835 13.1192 94.0419 15.3116C94.397 16.0485 94.6928 16.6966 94.7995 17.3756C94.9323 18.222 95.008 19.0778 95.0838 19.9335C95.1157 20.2934 95.1476 20.6537 95.1837 21.013C96.9081 19.1139 98.9798 18.0366 101.74 18.0327Z" fill="url(#paint24_linear_618_718)"/>
<path d="M170.275 43.4636C170.221 43.3516 170.295 43.2651 170.472 43.1672C170.492 43.2434 170.434 43.3547 170.275 43.4636Z" fill="url(#paint25_linear_618_718)"/>
<defs>
<linearGradient id="paint0_linear_618_718" x1="-14.3168" y1="-10.3704" x2="216.973" y2="92.377" gradientUnits="userSpaceOnUse">
<stop stop-color="#FF3939"/>
<stop offset="1" stop-color="#4844F2"/>
</linearGradient>
<linearGradient id="paint1_linear_618_718" x1="-14.3168" y1="-10.3704" x2="216.973" y2="92.377" gradientUnits="userSpaceOnUse">
<stop stop-color="#FF3939"/>
<stop offset="1" stop-color="#4844F2"/>
</linearGradient>
<linearGradient id="paint2_linear_618_718" x1="-14.3168" y1="-10.3704" x2="216.973" y2="92.377" gradientUnits="userSpaceOnUse">
<stop stop-color="#FF3939"/>
<stop offset="1" stop-color="#4844F2"/>
</linearGradient>
<linearGradient id="paint3_linear_618_718" x1="-14.3168" y1="-10.3704" x2="216.973" y2="92.377" gradientUnits="userSpaceOnUse">
<stop stop-color="#FF3939"/>
<stop offset="1" stop-color="#4844F2"/>
</linearGradient>
<linearGradient id="paint4_linear_618_718" x1="-14.3168" y1="-10.3704" x2="216.973" y2="92.377" gradientUnits="userSpaceOnUse">
<stop stop-color="#FF3939"/>
<stop offset="1" stop-color="#4844F2"/>
</linearGradient>
<linearGradient id="paint5_linear_618_718" x1="-14.3168" y1="-10.3704" x2="216.973" y2="92.377" gradientUnits="userSpaceOnUse">
<stop stop-color="#FF3939"/>
<stop offset="1" stop-color="#4844F2"/>
</linearGradient>
<linearGradient id="paint6_linear_618_718" x1="-14.3168" y1="-10.3704" x2="216.973" y2="92.377" gradientUnits="userSpaceOnUse">
<stop stop-color="#FF3939"/>
<stop offset="1" stop-color="#4844F2"/>
</linearGradient>
<linearGradient id="paint7_linear_618_718" x1="-14.3168" y1="-10.3704" x2="216.973" y2="92.377" gradientUnits="userSpaceOnUse">
<stop stop-color="#FF3939"/>
<stop offset="1" stop-color="#4844F2"/>
</linearGradient>
<linearGradient id="paint8_linear_618_718" x1="-14.3168" y1="-10.3704" x2="216.973" y2="92.377" gradientUnits="userSpaceOnUse">
<stop stop-color="#FF3939"/>
<stop offset="1" stop-color="#4844F2"/>
</linearGradient>
<linearGradient id="paint9_linear_618_718" x1="-14.3168" y1="-10.3704" x2="216.973" y2="92.377" gradientUnits="userSpaceOnUse">
<stop stop-color="#FF3939"/>
<stop offset="1" stop-color="#4844F2"/>
</linearGradient>
<linearGradient id="paint10_linear_618_718" x1="-14.3168" y1="-10.3704" x2="216.973" y2="92.377" gradientUnits="userSpaceOnUse">
<stop stop-color="#FF3939"/>
<stop offset="1" stop-color="#4844F2"/>
</linearGradient>
<linearGradient id="paint11_linear_618_718" x1="-14.3168" y1="-10.3704" x2="216.973" y2="92.377" gradientUnits="userSpaceOnUse">
<stop stop-color="#FF3939"/>
<stop offset="1" stop-color="#4844F2"/>
</linearGradient>
<linearGradient id="paint12_linear_618_718" x1="-14.3168" y1="-10.3704" x2="216.973" y2="92.377" gradientUnits="userSpaceOnUse">
<stop stop-color="#FF3939"/>
<stop offset="1" stop-color="#4844F2"/>
</linearGradient>
<linearGradient id="paint13_linear_618_718" x1="-14.3168" y1="-10.3704" x2="216.973" y2="92.377" gradientUnits="userSpaceOnUse">
<stop stop-color="#FF3939"/>
<stop offset="1" stop-color="#4844F2"/>
</linearGradient>
<linearGradient id="paint14_linear_618_718" x1="-14.3168" y1="-10.3704" x2="216.973" y2="92.377" gradientUnits="userSpaceOnUse">
<stop stop-color="#FF3939"/>
<stop offset="1" stop-color="#4844F2"/>
</linearGradient>
<linearGradient id="paint15_linear_618_718" x1="-14.3168" y1="-10.3704" x2="216.973" y2="92.377" gradientUnits="userSpaceOnUse">
<stop stop-color="#FF3939"/>
<stop offset="1" stop-color="#4844F2"/>
</linearGradient>
<linearGradient id="paint16_linear_618_718" x1="-14.3168" y1="-10.3704" x2="216.973" y2="92.377" gradientUnits="userSpaceOnUse">
<stop stop-color="#FF3939"/>
<stop offset="1" stop-color="#4844F2"/>
</linearGradient>
<linearGradient id="paint17_linear_618_718" x1="-14.3168" y1="-10.3704" x2="216.973" y2="92.377" gradientUnits="userSpaceOnUse">
<stop stop-color="#FF3939"/>
<stop offset="1" stop-color="#4844F2"/>
</linearGradient>
<linearGradient id="paint18_linear_618_718" x1="-14.3168" y1="-10.3704" x2="216.973" y2="92.377" gradientUnits="userSpaceOnUse">
<stop stop-color="#FF3939"/>
<stop offset="1" stop-color="#4844F2"/>
</linearGradient>
<linearGradient id="paint19_linear_618_718" x1="-14.3168" y1="-10.3704" x2="216.973" y2="92.377" gradientUnits="userSpaceOnUse">
<stop stop-color="#FF3939"/>
<stop offset="1" stop-color="#4844F2"/>
</linearGradient>
<linearGradient id="paint20_linear_618_718" x1="-14.3168" y1="-10.3704" x2="216.973" y2="92.377" gradientUnits="userSpaceOnUse">
<stop stop-color="#FF3939"/>
<stop offset="1" stop-color="#4844F2"/>
</linearGradient>
<linearGradient id="paint21_linear_618_718" x1="-14.3168" y1="-10.3704" x2="216.973" y2="92.377" gradientUnits="userSpaceOnUse">
<stop stop-color="#FF3939"/>
<stop offset="1" stop-color="#4844F2"/>
</linearGradient>
<linearGradient id="paint22_linear_618_718" x1="-14.3168" y1="-10.3704" x2="216.973" y2="92.377" gradientUnits="userSpaceOnUse">
<stop stop-color="#FF3939"/>
<stop offset="1" stop-color="#4844F2"/>
</linearGradient>
<linearGradient id="paint23_linear_618_718" x1="-14.3168" y1="-10.3704" x2="216.973" y2="92.377" gradientUnits="userSpaceOnUse">
<stop stop-color="#FF3939"/>
<stop offset="1" stop-color="#4844F2"/>
</linearGradient>
<linearGradient id="paint24_linear_618_718" x1="-14.3168" y1="-10.3704" x2="216.973" y2="92.377" gradientUnits="userSpaceOnUse">
<stop stop-color="#FF3939"/>
<stop offset="1" stop-color="#4844F2"/>
</linearGradient>
<linearGradient id="paint25_linear_618_718" x1="-14.3168" y1="-10.3704" x2="216.973" y2="92.377" gradientUnits="userSpaceOnUse">
<stop stop-color="#FF3939"/>
<stop offset="1" stop-color="#4844F2"/>
</linearGradient>
</defs>
</svg>
