<svg width="36" height="36" viewBox="0 0 36 36" fill="none" xmlns="http://www.w3.org/2000/svg">
<g clip-path="url(#clip0_618_725)">
<path d="M18.0683 18.0219C18.0683 22.8992 15.9264 26.8532 13.2841 26.8532C10.6418 26.8532 8.5 22.9004 8.5 18.0219C8.5 13.1434 10.6419 9.19091 13.2841 9.19091C15.9262 9.19091 18.0683 13.1446 18.0683 18.0219ZM23.3167 18.0219C23.3167 22.6133 22.2457 26.335 20.9246 26.335C19.6035 26.335 18.5325 22.6121 18.5325 18.0219C18.5325 13.4317 19.6035 9.70884 20.9246 9.70884C22.2457 9.70884 23.3167 13.4317 23.3167 18.0219ZM25.4634 18.0219C25.4634 22.1355 25.0866 25.4701 24.622 25.4701C24.1574 25.4701 23.7807 22.1344 23.7807 18.0219C23.7807 13.9094 24.1574 10.5737 24.6222 10.5737C25.087 10.5737 25.4634 13.9086 25.4634 18.0219ZM38.6671 9.95663L38.6804 9.95127V9.76215H35.9596L33.4333 20.6479L30.907 9.76215H27.9751V9.95127L27.9882 9.95663C28.4848 10.1621 28.737 10.4686 28.737 11.5739V24.5131C28.737 25.6184 28.4839 25.9249 27.9873 26.1304L27.9741 26.1357V26.3254H29.9633V26.1363L29.9502 26.131C29.4536 25.9254 29.2014 25.619 29.2014 24.5137V12.3244L32.4468 26.3254H32.6308L35.9707 11.9339V24.8333C35.9281 25.7062 35.6783 25.9758 35.2286 26.1619L35.2153 26.1676V26.3552H38.6804V26.1676L38.6671 26.1619C38.2169 25.9758 37.9611 25.7062 37.9185 24.8333L37.9162 11.5739H37.9185C37.9185 10.4686 38.1706 10.1621 38.6671 9.95663ZM40.2499 18.5282C40.3066 16.2033 40.7619 14.5254 41.5261 14.4965C41.7618 14.5036 41.9595 14.6454 42.1132 14.9182C42.4397 15.4993 42.5933 16.7135 42.5695 18.5282H40.2499ZM40.2156 19.1834H44.2769V19.1522C44.2654 17.3744 43.9845 15.9916 43.4429 15.0421C42.9747 14.2216 42.2815 13.7701 41.5534 13.7701H41.5372C41.1593 13.7701 40.6958 13.938 40.366 14.2424C39.9906 14.5611 39.6595 15.0376 39.384 15.6631C38.9405 16.6706 38.6718 18.0323 38.6065 19.5626C38.6044 19.6084 38.6026 19.6543 38.6008 19.7002C38.599 19.746 38.5979 19.7871 38.5968 19.8309C38.591 20.0461 38.589 20.2615 38.5909 20.4769C38.6349 23.9428 39.6561 26.7126 41.4699 26.7126C43.0619 26.7126 43.9891 24.579 44.2202 21.715L44.1034 21.6397C43.6973 23.1788 42.9679 24.1117 42.1377 23.9979C41.0045 23.8424 40.1363 21.7359 40.2151 19.184M48.8688 23.8802C48.7356 24.4595 48.4577 24.7782 48.0852 24.7782C47.7127 24.7782 47.3722 24.3094 47.1303 23.4576C46.8703 22.5433 46.7336 21.2507 46.7336 19.7195C46.7336 16.5327 47.2742 14.4715 48.111 14.4715C48.4614 14.4715 48.7373 14.7901 48.8688 15.3462V23.8802ZM51.563 26.1521C51.0663 25.9368 50.8142 25.616 50.8142 24.4545V9L47.797 10.6297V10.8293L47.8155 10.8266C48.2317 10.7649 48.514 10.8704 48.678 11.148C48.8063 11.3654 48.8688 11.6989 48.8688 12.1683V14.2871C48.5714 13.9389 48.2176 13.7695 47.7882 13.7695C46.9174 13.7695 46.1216 14.4417 45.5476 15.6625C44.9493 16.9348 44.633 18.6736 44.633 20.6902C44.6329 24.2918 45.6 26.7126 47.0393 26.7126C47.8813 26.7126 48.5587 25.8668 48.8688 24.4402V26.3552H51.5761V26.1569L51.563 26.1521ZM54.1507 11.1018C54.1507 9.97718 53.6882 9.12896 53.0746 9.12896C52.4639 9.12896 51.9862 9.99565 51.9862 11.1018C51.9862 12.2079 52.4644 13.0746 53.0746 13.0746C53.6882 13.0746 54.1507 12.2264 54.1507 11.1018ZM54.8629 26.1521C54.3663 25.9368 54.1141 25.616 54.1141 24.4545H54.112V13.8061L51.4046 15.2312V15.4248L51.4208 15.4275C52.0066 15.5231 52.167 15.893 52.167 17.1481V26.3552H54.8767V26.1569L54.8629 26.1521ZM61.8005 26.1521C61.3038 25.9368 61.0517 25.616 61.0517 24.4545V13.8061L58.4739 15.1842V15.3784L58.4892 15.3813C58.9681 15.4737 59.1065 15.8647 59.1065 17.1254V23.8564C58.9468 24.4357 58.6472 24.7797 58.2843 24.8029C57.6957 24.8029 57.3716 24.0741 57.3716 22.7509V13.8064L54.6642 15.2315V15.4248L54.6804 15.4275C55.2663 15.5228 55.4268 15.8927 55.4268 17.1481V22.8447C55.4254 23.2424 55.4442 23.6394 55.4831 24.0306L55.5319 24.4193C55.7611 25.9251 56.3617 26.7126 57.3026 26.7126C58.0996 26.7126 58.7981 25.8081 59.1058 24.3928V26.3585H61.8133V26.1601L61.8005 26.1521ZM72.3182 26.3552V26.1566L72.305 26.1509C71.7661 25.9231 71.5563 25.4936 71.5563 24.6192V17.3759C71.5563 15.1175 70.8644 13.7695 69.7054 13.7695C68.8607 13.7695 68.1483 14.6645 67.8741 16.0586C67.6562 14.5814 67.0293 13.7695 66.1024 13.7695C65.2882 13.7695 64.65 14.5572 64.3763 15.8879V13.807L61.6689 15.1737V15.3685L61.6851 15.3712C62.2639 15.4653 62.4313 15.8459 62.4313 17.0688V26.3552H64.9574V26.1569L64.9441 26.1509C64.5142 25.9657 64.3755 25.6279 64.3755 24.7612V16.4589C64.4892 15.9719 64.7184 15.395 65.1715 15.395C65.7343 15.395 66.0195 16.1098 66.0195 17.518V26.3552H68.5463V26.1569L68.533 26.1509C68.1032 25.9657 67.9644 25.6279 67.9644 24.7612V17.375C67.9655 17.0988 67.9536 16.823 67.9287 16.5506C68.0492 16.0214 68.2916 15.395 68.7632 15.395C69.3339 15.395 69.6112 16.0893 69.6112 17.518V26.3552H72.3182Z" fill="white"/>
</g>
<rect x="0.25" y="0.25" width="35.5" height="35.5" rx="17.75" stroke="white" stroke-opacity="0.5" stroke-width="0.5"/>
<defs>
<clipPath id="clip0_618_725">
<rect width="18" height="18" fill="white" transform="translate(8.5 9)"/>
</clipPath>
</defs>
</svg>
