<svg width="64" height="64" viewBox="0 0 64 64" fill="none" xmlns="http://www.w3.org/2000/svg">
<rect width="64" height="64" rx="32" fill="white"/>
<path d="M16.3034 14.0694C14.8376 14.4192 13.7735 16.0562 14.0414 17.5444C14.2572 18.7423 14.9492 19.5757 16.043 19.9403C16.4374 20.0743 16.6829 20.0966 17.8437 20.0966H19.1831V33.6986C19.1831 48.7144 19.1533 47.7545 19.6519 48.5879C19.9569 49.0939 20.3588 49.4436 20.9689 49.7413L21.4526 49.9719L33.9087 49.9943C45.1892 50.0092 46.4095 50.0017 46.7815 49.8901C47.347 49.7264 47.7488 49.4808 48.1655 49.0344C49.2891 47.829 49.2296 45.8794 48.0167 44.7335C47.4586 44.2052 46.908 43.9671 46.1788 43.9225L45.5984 43.8853V43.4314C45.5984 42.8584 45.4645 42.6426 45.1147 42.6426C44.7576 42.6426 44.6311 42.8584 44.6311 43.4388V43.9076H33.3357C22.4794 43.9076 22.0255 43.915 21.9139 44.0415C21.7502 44.2201 21.7502 44.5252 21.9139 44.6666C21.9883 44.7335 22.219 44.8079 22.4199 44.8377C24.0643 45.0684 24.8828 46.7351 24.0197 48.1043C23.1565 49.4585 21.1326 49.3395 20.3513 47.8885L20.1876 47.5908L20.1504 32.0021C20.1132 17.7378 20.1058 16.391 19.9867 16.1083C19.7932 15.6246 19.5775 15.2228 19.451 15.1186C19.384 15.0591 19.3319 14.9921 19.3319 14.9549C19.3319 14.9103 24.1908 14.8954 31.1481 14.9028L42.9569 14.9252L43.3512 15.1037C43.8349 15.3195 44.3483 15.8776 44.512 16.3538C44.6088 16.6291 44.6311 17.0235 44.6311 18.2364C44.6311 19.6353 44.646 19.7841 44.765 19.8957C44.9659 20.0817 45.3454 20.0594 45.4794 19.8585C45.5761 19.7246 45.5984 19.4344 45.5984 18.2587C45.5984 17.4774 45.5612 16.6514 45.5166 16.4357C45.2859 15.3418 44.4971 14.4638 43.4629 14.1439C42.9866 13.995 42.8155 13.995 29.7567 14.0025C22.4869 14.0099 16.4374 14.0322 16.3034 14.0694ZM18.0521 15.1781C18.4613 15.3865 18.9078 15.9222 19.0566 16.3836C19.1533 16.6738 19.1831 17.0533 19.1831 17.9908V19.2186L17.866 19.1888C16.6457 19.1665 16.5118 19.1516 16.177 18.9879C15.1427 18.4745 14.659 17.2393 15.1203 16.2645C15.3436 15.7734 15.6263 15.446 16.0281 15.2153C16.6085 14.8731 17.427 14.8582 18.0521 15.1781ZM46.7518 45.0088C47.5479 45.3734 48.0018 46.0655 48.0093 46.9212C48.0167 47.7992 47.5926 48.4838 46.8038 48.8707L46.3797 49.079L35.4192 49.1014L24.4662 49.1162L24.7191 48.7888C25.1358 48.2382 25.2475 47.8513 25.2475 46.9212C25.2475 46.1771 25.2251 46.058 25.0317 45.6413C24.9201 45.3883 24.7563 45.1205 24.6819 45.0535C24.6001 44.9865 24.5406 44.8972 24.5406 44.86C24.5406 44.8228 29.3846 44.8079 35.4639 44.8154L46.3797 44.8377L46.7518 45.0088Z" fill="url(#paint0_linear_618_849)"/>
<path d="M25.8797 17.388C24.8826 17.5815 24.0864 18.0056 23.3498 18.7497C21.7202 20.3793 21.497 22.8348 22.7917 24.7918C24.1459 26.8231 26.9512 27.463 29.0718 26.2204C30.7014 25.268 31.6464 23.3333 31.3934 21.4954C31.2297 20.3197 30.8428 19.5459 30.0094 18.7199C29.4067 18.1172 28.9156 17.8122 28.0748 17.5294C27.7102 17.4029 26.2815 17.3136 25.8797 17.388ZM27.8218 18.467C28.7891 18.7423 29.6374 19.4789 30.0913 20.4314C30.627 21.5475 30.6196 22.6711 30.0764 23.7947L29.8904 24.1816L29.5406 23.9137C27.978 22.7157 25.5523 22.6934 23.9227 23.8616C23.4763 24.1816 23.4316 24.1518 23.1489 23.4003C22.561 21.7931 23.0968 20.037 24.4808 19.0101C25.4481 18.3033 26.6015 18.1098 27.8218 18.467ZM27.7399 24.0923C28.2087 24.2188 28.6403 24.4271 28.99 24.6876L29.2355 24.8736L29.0793 25.0447C28.8635 25.2754 28.1715 25.6326 27.673 25.7814C26.8172 26.0344 25.7755 25.9004 24.8975 25.4391C24.6668 25.3201 24.4064 25.1415 24.3171 25.0447L24.1608 24.8736L24.4064 24.6876C25.3291 23.9956 26.5791 23.7723 27.7399 24.0923Z" fill="url(#paint1_linear_618_849)"/>
<path d="M26.0436 18.8988C25.2474 19.1741 24.7563 19.8736 24.7563 20.7219C24.7563 21.8082 25.4558 22.597 26.4975 22.6788C27.3681 22.7532 28.0452 22.3961 28.4247 21.6668C28.6926 21.1534 28.7149 20.3944 28.4843 19.9033C28.261 19.4495 27.755 19.0104 27.2863 18.8765C26.7877 18.7277 26.5347 18.7277 26.0436 18.8988ZM27.1449 19.8364C27.6583 20.1043 27.8518 20.6474 27.5988 21.1534C27.2119 21.957 26.1329 21.9496 25.7683 21.146C25.3888 20.2977 26.3189 19.4122 27.1449 19.8364Z" fill="url(#paint2_linear_618_849)"/>
<path d="M31.2152 17.4774C31.059 17.6485 31.0515 17.9685 31.2078 18.1173C31.312 18.2214 31.937 18.2363 37.0043 18.2363C42.5478 18.2363 42.6966 18.2363 42.771 18.095C42.8826 17.8717 42.8603 17.6038 42.7115 17.4699C42.585 17.3509 42.079 17.3434 36.9522 17.3434C31.6021 17.3434 31.3268 17.3509 31.2152 17.4774Z" fill="url(#paint3_linear_618_849)"/>
<path d="M42.4733 20.1488C42.2203 20.4613 41.6548 21.5328 41.6548 21.7114C41.6548 21.7709 41.6102 21.8081 41.5655 21.7858C40.6726 21.3914 39.5937 21.0714 39.1844 21.064C38.9835 21.064 38.7529 21.3393 38.7529 21.57C38.7529 22.1578 39.3035 23.6758 39.7276 24.2785L39.8839 24.5017L39.6904 24.8812C39.4672 25.3351 39.4449 25.6253 39.6234 26.0569L39.7425 26.3694L39.4151 26.6298C38.351 27.4781 37.3019 28.8472 36.5652 30.328C35.9997 31.4664 35.717 32.2477 35.4342 33.4606C35.2482 34.2419 35.2259 34.4949 35.2259 35.611C35.2184 36.7197 35.2407 36.9504 35.3896 37.4712C36.0592 39.7779 37.8376 41.0057 41.0223 41.3777C41.3944 41.4149 42.2947 41.4521 43.0314 41.4521C45.2414 41.4521 46.6403 41.1917 47.9722 40.5518C49.6315 39.7482 50.5467 38.3716 50.7328 36.4072C50.9411 34.2196 50.0408 31.206 48.4856 28.9067C47.9722 28.1403 46.9007 26.9572 46.3501 26.548L46.0971 26.3619L46.2161 26.0569C46.2905 25.8857 46.3426 25.6402 46.3426 25.5062C46.3426 25.2532 46.1119 24.6877 45.9854 24.6059C45.9408 24.5761 46.0078 24.4124 46.1491 24.1966C46.6923 23.393 47.2058 21.7188 47.0272 21.3244C46.9825 21.2277 46.8635 21.1235 46.7593 21.0938C46.5361 21.0417 45.5539 21.2798 44.914 21.5476C44.1996 21.8453 44.2368 21.8527 44.0806 21.4584C43.8871 20.9821 43.4704 20.2455 43.2695 20.0371C43.0314 19.7841 42.7486 19.8214 42.4733 20.1488ZM43.2025 21.8602C43.3216 22.1801 43.4555 22.5373 43.4927 22.6638C43.5299 22.7828 43.649 22.9317 43.7532 22.9912C43.9318 23.0954 43.9913 23.073 44.7875 22.6861C45.2562 22.4554 45.7176 22.2397 45.8143 22.2173C45.978 22.1652 45.9854 22.1801 45.9408 22.3736C45.859 22.7159 45.4795 23.4972 45.219 23.8543L44.9809 24.1892H42.9123H40.8438L40.6131 23.8543C40.3527 23.4749 39.9806 22.701 39.8988 22.3736C39.8467 22.1652 39.8541 22.1578 40.055 22.2099C40.308 22.2769 41.0447 22.6191 41.5209 22.9019C41.8483 23.0954 41.8855 23.1028 42.079 22.9986C42.2278 22.9168 42.3096 22.7754 42.4138 22.4406C42.5626 21.9197 42.8454 21.2872 42.9272 21.2872C42.957 21.2872 43.0835 21.5476 43.2025 21.8602ZM45.2562 25.2756C45.4051 25.4244 45.4051 25.6327 45.2562 25.7815C45.1521 25.8857 44.8619 25.9006 42.8603 25.8857L40.5759 25.8634L40.5089 25.6625C40.4494 25.4988 40.4643 25.4244 40.5759 25.3053C40.7024 25.1639 40.7917 25.1565 42.9272 25.1565C44.8395 25.1565 45.1595 25.1714 45.2562 25.2756ZM45.5241 27.1432C46.4914 27.7906 47.7862 29.383 48.493 30.8042C49.4752 32.7686 49.9738 34.9264 49.7803 36.4295C49.4232 39.2645 47.3323 40.5146 42.957 40.5146C40.2038 40.5071 38.5148 40.0458 37.3837 38.9966C36.5131 38.1781 36.1485 37.2034 36.1485 35.6631C36.1485 32.5974 37.912 28.9514 40.241 27.2325L40.7247 26.8679H42.9198H45.1149L45.5241 27.1432Z" fill="url(#paint4_linear_618_849)"/>
<path d="M41.1635 28.1922C40.6575 28.3707 40.2706 28.6907 39.7125 29.3827C38.1946 31.2578 37.3389 33.5496 37.3389 35.7075C37.3389 36.8609 37.4951 37.4115 37.9639 37.9323C38.7973 38.8625 40.2706 39.2568 42.9196 39.2568C46.5359 39.2568 48.1431 38.4904 48.4259 36.6302C48.6044 35.5066 48.3068 33.6389 47.719 32.1879C47.0418 30.5063 45.8141 28.8098 44.9212 28.3187L44.5194 28.0954L43.0312 28.0731C41.7513 28.0582 41.4909 28.0731 41.1635 28.1922ZM44.8244 29.472C45.9555 30.5807 46.8186 32.1433 47.2874 33.9217C47.4437 34.517 47.4809 34.8295 47.4883 35.6852C47.4957 36.66 47.4809 36.7492 47.3172 37.0394C47.0121 37.5752 46.3796 37.9249 45.3007 38.1556C44.4003 38.349 41.4611 38.349 40.5385 38.1556C39.6828 37.977 38.8568 37.5603 38.5889 37.1734C38.3136 36.779 38.202 36.1465 38.2615 35.3503C38.4178 33.3636 39.3628 31.176 40.665 29.7622C41.3719 29.0032 41.3198 29.0181 42.9717 29.0404L44.4003 29.0628L44.8244 29.472Z" fill="url(#paint5_linear_618_849)"/>
<path d="M42.5624 30.1567C42.5103 30.2088 42.4731 30.38 42.4731 30.5437C42.4731 30.8264 42.4433 30.8562 42.1754 30.9827C41.6248 31.2431 41.223 32.0095 41.3123 32.6569C41.4239 33.4828 42.0043 34.0335 42.86 34.1376C43.5222 34.2195 43.8794 34.7032 43.6339 35.1943C43.485 35.477 43.3065 35.5737 42.9344 35.5737C42.6889 35.5737 42.5996 35.5291 42.4433 35.3431C42.3391 35.2166 42.2498 35.0454 42.2498 34.9487C42.2498 34.5097 41.6918 34.279 41.3941 34.6064C41.2379 34.7776 41.2751 35.2761 41.4685 35.6482C41.6174 35.9383 42.0861 36.3848 42.3019 36.4369C42.4433 36.4741 42.4731 36.5336 42.4731 36.7941C42.4731 37.181 42.5698 37.2852 42.9344 37.2852C43.2469 37.2852 43.366 37.1438 43.366 36.7717C43.366 36.5783 43.4106 36.5262 43.6487 36.4294C44.2589 36.169 44.6309 35.5961 44.6309 34.9041C44.6309 34.0037 44.0431 33.334 43.1651 33.215C42.7335 33.1629 42.4284 33.0215 42.3243 32.828C42.1903 32.575 42.2424 32.2476 42.4433 32.0095C42.5996 31.8235 42.6889 31.7789 42.9344 31.7789C43.0907 31.7789 43.2916 31.8161 43.3734 31.8533C43.5446 31.95 43.738 32.3072 43.738 32.5453C43.738 32.7908 43.872 32.895 44.1845 32.895C44.5342 32.895 44.6309 32.7834 44.6309 32.3741C44.6235 31.7565 44.2291 31.1687 43.6487 30.9232C43.4106 30.8264 43.366 30.7743 43.366 30.5809C43.366 30.2088 43.2469 30.0675 42.9344 30.0675C42.7782 30.0675 42.6145 30.1047 42.5624 30.1567Z" fill="url(#paint6_linear_618_849)"/>
<path d="M32.8445 21.3316C32.7032 21.4655 32.6883 21.8897 32.8148 22.0162C32.8818 22.0831 33.4845 22.1055 35.0768 22.1055C37.4654 22.1055 37.4877 22.098 37.4877 21.6665C37.4877 21.2274 37.4282 21.2126 35.0843 21.2126C33.2538 21.2126 32.9413 21.2274 32.8445 21.3316Z" fill="url(#paint7_linear_618_849)"/>
<path d="M31.7733 25.2462C31.6468 25.3727 31.6617 25.7968 31.803 25.9307C31.8998 26.0349 32.2941 26.0498 34.9506 26.0498C37.793 26.0498 37.9939 26.0424 38.1055 25.9159C38.2618 25.7447 38.2692 25.4248 38.113 25.2759C38.0162 25.1718 37.6219 25.1569 34.9282 25.1569C32.6439 25.1569 31.8402 25.1792 31.7733 25.2462Z" fill="url(#paint8_linear_618_849)"/>
<path d="M22.0551 29.1145C21.8988 29.3303 21.9063 29.494 22.07 29.6875L22.1965 29.8438L28.7817 29.8289L35.3595 29.8065L35.4785 29.5982C35.5753 29.4196 35.5753 29.375 35.4785 29.1889L35.3595 28.988L28.7668 28.9657L22.1667 28.9508L22.0551 29.1145Z" fill="url(#paint9_linear_618_849)"/>
<path d="M22.0551 32.9847C21.9881 33.0739 21.936 33.2004 21.936 33.2674C21.936 33.3344 21.9881 33.4609 22.0551 33.5502L22.1667 33.7139H28.0376C33.276 33.7139 33.9159 33.699 34.0201 33.5948C34.1838 33.4386 34.1689 33.0963 34.0052 32.9475C33.8787 32.8284 33.3579 32.821 28.0153 32.821H22.1667L22.0551 32.9847Z" fill="url(#paint10_linear_618_849)"/>
<path d="M22.0551 36.8538C21.8988 37.0696 21.9063 37.2333 22.07 37.4267L22.1965 37.583L28.0004 37.5681L33.7969 37.5458L33.9159 37.3375C34.0127 37.1589 34.0127 37.1142 33.9159 36.9282L33.7969 36.7273L27.9855 36.705L22.1667 36.6901L22.0551 36.8538Z" fill="url(#paint11_linear_618_849)"/>
<path d="M22.0551 40.7226C21.9881 40.8119 21.936 40.9384 21.936 41.0053C21.936 41.0723 21.9881 41.1988 22.0551 41.2881L22.1667 41.4518H28.9305C36.3714 41.4518 35.925 41.4815 35.925 41.0053C35.925 40.5291 36.3714 40.5589 28.9305 40.5589H22.1667L22.0551 40.7226Z" fill="url(#paint12_linear_618_849)"/>
<defs>
<linearGradient id="paint0_linear_618_849" x1="16.7048" y1="71.3559" x2="60.8137" y2="61.8742" gradientUnits="userSpaceOnUse">
<stop stop-color="#FF3939"/>
<stop offset="1" stop-color="#4844F2"/>
</linearGradient>
<linearGradient id="paint1_linear_618_849" x1="22.6878" y1="32.4863" x2="34.6151" y2="29.8507" gradientUnits="userSpaceOnUse">
<stop stop-color="#FF3939"/>
<stop offset="1" stop-color="#4844F2"/>
</linearGradient>
<linearGradient id="paint2_linear_618_849" x1="25.057" y1="25.0145" x2="29.9502" y2="23.9412" gradientUnits="userSpaceOnUse">
<stop stop-color="#FF3939"/>
<stop offset="1" stop-color="#4844F2"/>
</linearGradient>
<linearGradient id="paint3_linear_618_849" x1="32.0029" y1="18.766" x2="33.6388" y2="14.0033" gradientUnits="userSpaceOnUse">
<stop stop-color="#FF3939"/>
<stop offset="1" stop-color="#4844F2"/>
</linearGradient>
<linearGradient id="paint4_linear_618_849" x1="36.4264" y1="54.2541" x2="56.4235" y2="51.0679" gradientUnits="userSpaceOnUse">
<stop stop-color="#FF3939"/>
<stop offset="1" stop-color="#4844F2"/>
</linearGradient>
<linearGradient id="paint5_linear_618_849" x1="38.2004" y1="45.8941" x2="52.219" y2="42.8056" gradientUnits="userSpaceOnUse">
<stop stop-color="#FF3939"/>
<stop offset="1" stop-color="#4844F2"/>
</linearGradient>
<linearGradient id="paint6_linear_618_849" x1="41.5548" y1="41.5668" x2="45.9091" y2="41.1217" gradientUnits="userSpaceOnUse">
<stop stop-color="#FF3939"/>
<stop offset="1" stop-color="#4844F2"/>
</linearGradient>
<linearGradient id="paint7_linear_618_849" x1="33.0966" y1="22.6352" x2="35.7231" y2="19.5372" gradientUnits="userSpaceOnUse">
<stop stop-color="#FF3939"/>
<stop offset="1" stop-color="#4844F2"/>
</linearGradient>
<linearGradient id="paint8_linear_618_849" x1="32.1928" y1="26.5795" x2="34.5723" y2="22.723" gradientUnits="userSpaceOnUse">
<stop stop-color="#FF3939"/>
<stop offset="1" stop-color="#4844F2"/>
</linearGradient>
<linearGradient id="paint9_linear_618_849" x1="22.995" y1="30.3734" x2="24.4461" y2="25.4791" gradientUnits="userSpaceOnUse">
<stop stop-color="#FF3939"/>
<stop offset="1" stop-color="#4844F2"/>
</linearGradient>
<linearGradient id="paint10_linear_618_849" x1="22.8797" y1="34.2436" x2="24.4671" y2="29.4439" gradientUnits="userSpaceOnUse">
<stop stop-color="#FF3939"/>
<stop offset="1" stop-color="#4844F2"/>
</linearGradient>
<linearGradient id="paint11_linear_618_849" x1="22.8741" y1="38.1127" x2="24.4777" y2="33.3252" gradientUnits="userSpaceOnUse">
<stop stop-color="#FF3939"/>
<stop offset="1" stop-color="#4844F2"/>
</linearGradient>
<linearGradient id="paint12_linear_618_849" x1="23.0185" y1="41.9823" x2="24.438" y2="37.0629" gradientUnits="userSpaceOnUse">
<stop stop-color="#FF3939"/>
<stop offset="1" stop-color="#4844F2"/>
</linearGradient>
</defs>
</svg>
