<svg width="95" height="94" viewBox="0 0 95 94" fill="none" xmlns="http://www.w3.org/2000/svg">
<g filter="url(#filter0_bd_330_185)">
<path d="M32.5962 35.7525C31.8994 36.1554 31.2391 37.053 31.0666 37.844C30.8778 38.6633 30.6596 37.7368 34.1129 50.6247C37.5661 63.5125 37.2919 62.601 37.8651 63.2162C38.0185 63.3853 38.3491 63.633 38.6333 63.7971C39.4661 64.2826 40.1923 64.3703 41.1505 64.1135C41.5819 63.9979 41.7578 63.9148 42.089 63.6939C42.3896 63.4932 44.7306 61.2024 50.8233 55.1617C55.4018 50.6197 59.2424 46.798 59.3513 46.6667C59.8316 46.1056 60.1355 45.2674 60.1327 44.5175C60.1266 44.0687 59.9194 43.2954 59.7003 42.9037C59.3277 42.2528 58.6455 41.6789 57.949 41.4331C57.789 41.3739 52.5521 39.9845 46.316 38.3403C38.0192 36.1552 34.8464 35.3418 34.4858 35.3183C34.0758 35.29 33.9058 35.3055 33.4366 35.4372C33.1284 35.5198 32.7523 35.6626 32.5962 35.7525ZM39.8719 42.3972C43.205 45.1315 45.9464 47.4058 45.9585 47.4506C45.9765 47.5179 40.6182 61.8359 40.4684 62.1283C40.3442 62.3597 39.6141 62.1229 39.311 61.7537C39.1531 61.5678 39.0108 61.0594 36.0771 50.1104C32.7124 37.5531 32.9332 38.4669 33.18 37.9984C33.2851 37.808 33.6091 37.493 33.7421 37.4514C33.7813 37.4409 36.5403 39.6684 39.8719 42.3972ZM43.4063 39.6965C46.0733 40.3932 48.2926 40.9877 48.3352 41.0123C48.4047 41.0477 48.2469 41.5344 47.6162 43.1928C47.1745 44.3682 46.7926 45.3413 46.7717 45.3529C46.7396 45.3676 41.9017 41.4329 38.5311 38.6485L38.1058 38.294L38.335 38.3648C38.458 38.3979 40.7448 38.9983 43.4063 39.6965ZM53.8502 42.4533C55.7117 42.9455 57.3277 43.3953 57.4327 43.4512C58.0576 43.7883 58.2678 44.5728 57.8952 45.1771C57.8321 45.278 56.6576 46.4756 55.286 47.8341C53.3123 49.7923 52.7804 50.2951 52.715 50.2526C52.6652 50.2239 51.6893 49.4284 50.5436 48.4922L48.4576 46.781L49.1866 44.862C50.0876 42.4645 50.43 41.568 50.4468 41.5635C50.4524 41.562 51.9831 41.9627 53.8502 42.4533ZM49.523 50.3091C50.8984 51.43 51.2785 51.7726 51.236 51.838C51.2113 51.8807 49.5867 53.5051 47.6253 55.442C45.6695 57.3774 43.9892 59.0408 43.8993 59.131L43.7362 59.3068L43.9272 58.7872C45.4541 54.6905 47.6765 48.8641 47.7116 48.8607C47.7355 48.8603 48.5528 49.5121 49.523 50.3091Z" fill="url(#paint0_linear_330_185)"/>
<rect x="7.61237" y="24.0203" width="65" height="65" rx="7.5" transform="rotate(-15 7.61237 24.0203)" stroke="url(#paint1_linear_330_185)" stroke-opacity="0.12" shape-rendering="crispEdges"/>
</g>
<defs>
<filter id="filter0_bd_330_185" x="-9" y="-9.41528" width="112.833" height="112.833" filterUnits="userSpaceOnUse" color-interpolation-filters="sRGB">
<feFlood flood-opacity="0" result="BackgroundImageFix"/>
<feGaussianBlur in="BackgroundImageFix" stdDeviation="8"/>
<feComposite in2="SourceAlpha" operator="in" result="effect1_backgroundBlur_330_185"/>
<feColorMatrix in="SourceAlpha" type="matrix" values="0 0 0 0 0 0 0 0 0 0 0 0 0 0 0 0 0 0 127 0" result="hardAlpha"/>
<feOffset/>
<feGaussianBlur stdDeviation="4.02174"/>
<feComposite in2="hardAlpha" operator="out"/>
<feColorMatrix type="matrix" values="0 0 0 0 1 0 0 0 0 1 0 0 0 0 1 0 0 0 0.08 0"/>
<feBlend mode="normal" in2="effect1_backgroundBlur_330_185" result="effect2_dropShadow_330_185"/>
<feBlend mode="normal" in="SourceGraphic" in2="effect2_dropShadow_330_185" result="shape"/>
</filter>
<linearGradient id="paint0_linear_330_185" x1="50.898" y1="61.5017" x2="43.2121" y2="32.8172" gradientUnits="userSpaceOnUse">
<stop stop-color="#FF3939"/>
<stop offset="1" stop-color="#4844F2"/>
</linearGradient>
<linearGradient id="paint1_linear_330_185" x1="3.07921" y1="11.4445" x2="78.1204" y2="19.1907" gradientUnits="userSpaceOnUse">
<stop stop-color="#FF3939"/>
<stop offset="1" stop-color="#4844F2"/>
</linearGradient>
</defs>
</svg>
