<svg width="64" height="64" viewBox="0 0 64 64" fill="none" xmlns="http://www.w3.org/2000/svg">
<rect width="64" height="64" rx="32" fill="white"/>
<g clip-path="url(#clip0_618_882)">
<path d="M22.1287 17.7355C21.4311 17.8171 20.7483 18.2921 20.4736 18.8784C20.4068 19.0269 20.2436 19.5464 20.11 20.0362L19.8725 20.9269L19.442 20.9714C18.8779 21.0308 18.4178 21.2534 18.0541 21.6468C17.4975 22.2554 17.4975 22.2405 17.4678 25.0015L17.4455 27.4655L16.9779 27.896C16.1838 28.6234 14.9815 29.1726 13.8162 29.3433C13.5119 29.3878 13.2002 29.4694 13.1334 29.5362C13.0072 29.6402 12.9998 29.8925 12.9998 32.787C12.9998 36.3718 12.9627 36.112 13.7123 37.2476C14.4545 38.3609 15.7904 39.4222 17.015 39.8749L17.4307 40.0308L17.4752 40.7433C17.4975 41.1663 17.5643 41.5819 17.6311 41.7452C17.8092 42.146 18.2397 42.5913 18.6701 42.8214L19.0486 43.0218L25.617 43.0589L32.1854 43.096L38.0115 44.6769C43.5631 46.1835 43.8674 46.2577 44.3943 46.2355C45.0326 46.2058 45.4111 46.0499 45.8045 45.6566C46.1533 45.3077 46.2795 45.0257 46.5615 43.9644L46.799 43.0737L47.2147 43.0366C48.0088 42.9476 48.61 42.5394 48.9811 41.8417L49.1814 41.4632L49.2186 37.6409L49.2557 33.8187L50.1315 30.6124C50.8514 27.9702 50.9998 27.3171 50.9998 26.9015C50.9924 25.8995 50.4135 25.1722 49.3596 24.853C49.2557 24.8159 49.2334 24.6452 49.2037 23.673C49.174 22.6191 49.1592 22.5077 48.9811 22.1589C48.7584 21.7359 48.3205 21.3054 47.9049 21.1124C47.6451 20.9862 47.1701 20.9788 41.1881 20.9566L34.7459 20.9343L28.8307 19.3534C23.1455 17.8319 22.5443 17.6835 22.1287 17.7355ZM26.4482 19.8433L30.4412 20.9046L25.7506 20.9269C23.1752 20.9343 21.0525 20.9269 21.0377 20.912C20.9709 20.8526 21.4014 19.4202 21.5424 19.2273C21.6908 19.0194 22.0768 18.7968 22.3143 18.7894C22.3959 18.7819 24.2588 19.2569 26.4482 19.8433ZM47.5709 22.2034C48.0607 22.5077 48.1053 22.6636 48.1053 24.2964V25.7659H33.3357H18.5662V24.2964C18.5662 22.6636 18.6108 22.5077 19.1006 22.2034C19.3455 22.055 19.5088 22.055 33.3357 22.055C47.1627 22.055 47.326 22.055 47.5709 22.2034ZM49.6268 26.2335C50.0275 26.6343 50.0275 26.8421 49.6268 28.3487C49.4338 29.0687 49.2631 29.6773 49.2482 29.6921C49.2334 29.7069 49.2186 28.8831 49.2186 27.8589C49.2186 26.5452 49.2408 25.9886 49.3002 25.9886C49.3447 25.9886 49.4932 26.0999 49.6268 26.2335ZM48.1053 28.512V30.1448H35.7107H23.3162V29.9222C23.3162 29.5956 23.1084 29.4323 22.6186 29.373C21.5498 29.2394 20.4365 28.7866 19.5979 28.1484C19.0561 27.7402 18.5662 27.1984 18.5662 26.998C18.5662 26.8866 19.6721 26.8792 33.3357 26.8792H48.1053V28.512ZM18.7147 28.846C19.5979 29.5585 20.9561 30.1968 21.869 30.3378L22.2104 30.3823L22.1881 33.1062L22.1658 35.83L21.9061 36.2605C21.1119 37.5667 19.9244 38.5241 18.4772 39.0066C18.158 39.1105 18.0986 39.1105 17.735 38.9843C16.3545 38.5093 15.1225 37.5222 14.3951 36.2976L14.076 35.7484L14.0537 33.0616L14.0315 30.3675H14.2022C14.4916 30.3675 15.449 30.078 16.0205 29.8109C16.6217 29.5288 17.5346 28.9277 17.8611 28.5862C17.9799 28.4675 18.0838 28.3636 18.0986 28.3636C18.1061 28.3636 18.3881 28.5788 18.7147 28.846ZM48.1053 36.1714C48.1053 41.0253 48.0979 41.1737 47.9568 41.4112C47.8752 41.5448 47.7045 41.7155 47.5709 41.7972C47.326 41.9456 47.1627 41.9456 33.3357 41.9456C19.5088 41.9456 19.3455 41.9456 19.1006 41.7972C18.7072 41.5597 18.5662 41.248 18.5662 40.6245C18.5662 40.2905 18.5959 40.0902 18.6479 40.0902C18.8111 40.0902 19.8576 39.6374 20.3326 39.3554C20.6072 39.1921 21.0674 38.8655 21.3494 38.6206L21.869 38.1827L22.0025 38.3534L22.1361 38.5316H27.658C33.0908 38.5316 33.1873 38.5316 33.3357 38.3831C33.5139 38.205 33.5287 37.8859 33.3654 37.6558L33.2541 37.4925H27.8436H22.4256L22.6854 37.0917C23.1381 36.3866 23.3162 35.8894 23.3162 35.3698V34.8948H25.8693H28.4299L28.5412 34.7316C28.7045 34.5015 28.6897 34.1823 28.5115 34.0042C28.3705 33.8632 28.2666 33.8558 25.8397 33.8558H23.3162V32.5198V31.1839H35.7107H48.1053V36.1714ZM45.6561 43.1109C45.6561 43.1331 45.567 43.4894 45.4557 43.8976C45.2256 44.7437 44.9732 45.0925 44.4982 45.1816C44.2385 45.2261 42.3533 44.7511 37.0838 43.3112L36.1932 43.0663H40.9283C43.526 43.0589 45.6561 43.0812 45.6561 43.1109Z" fill="url(#paint0_linear_618_882)"/>
<path d="M19.1601 33.0762L17.8613 34.375L17.2527 33.7664C16.7183 33.232 16.607 33.1578 16.3769 33.1578C16.0652 33.1578 15.9168 33.2914 15.85 33.618C15.798 33.8555 15.8351 33.9 16.7258 34.7906C17.4828 35.5477 17.6832 35.7109 17.8613 35.7109C18.0469 35.7109 18.3215 35.466 19.6574 34.1301C21.0601 32.7273 21.2383 32.527 21.2383 32.3117C21.2383 32.0074 21.0156 31.7773 20.7039 31.7773C20.4961 31.7773 20.3031 31.9406 19.1601 33.0762Z" fill="url(#paint1_linear_618_882)"/>
<path d="M39.5332 33.2543C39.177 33.4176 38.9469 33.6551 38.791 34.0187C38.702 34.234 38.6797 34.5976 38.6797 35.6961C38.6797 37.0172 38.6871 37.1137 38.8504 37.4254C38.9691 37.6406 39.1473 37.8262 39.3848 37.9746L39.741 38.1973L42.2199 38.2195C45.0922 38.2492 45.3074 38.2195 45.7527 37.7223C46.1387 37.2992 46.1906 37.0023 46.1609 35.4957C46.1387 34.3082 46.1238 34.1598 45.968 33.8777C45.8789 33.6996 45.6637 33.4695 45.493 33.3582L45.1813 33.1504L42.5094 33.1355C40.0305 33.1133 39.8078 33.1207 39.5332 33.2543ZM44.9586 34.3305C45.0402 34.4418 45.0625 34.7535 45.0625 35.6664C45.0625 36.6609 45.0402 36.8687 44.9363 36.9875C44.825 37.1137 44.6469 37.1211 42.4277 37.1211C40.4906 37.1211 40.0156 37.0988 39.8969 37.0172C39.7707 36.9207 39.7559 36.7945 39.7336 35.7183L39.7113 34.5234L39.8969 34.3379L40.0898 34.1449L42.4723 34.1672C44.7285 34.1894 44.8547 34.1969 44.9586 34.3305Z" fill="url(#paint2_linear_618_882)"/>
</g>
<defs>
<linearGradient id="paint0_linear_618_882" x1="15.9388" y1="63.1517" x2="62.0726" y2="49.5445" gradientUnits="userSpaceOnUse">
<stop stop-color="#FF3939"/>
<stop offset="1" stop-color="#4844F2"/>
</linearGradient>
<linearGradient id="paint1_linear_618_882" x1="16.2529" y1="38.0444" x2="22.7802" y2="36.0602" gradientUnits="userSpaceOnUse">
<stop stop-color="#FF3939"/>
<stop offset="1" stop-color="#4844F2"/>
</linearGradient>
<linearGradient id="paint2_linear_618_882" x1="39.2589" y1="41.2539" x2="48.1977" y2="38.3504" gradientUnits="userSpaceOnUse">
<stop stop-color="#FF3939"/>
<stop offset="1" stop-color="#4844F2"/>
</linearGradient>
<clipPath id="clip0_618_882">
<rect width="38" height="38" fill="white" transform="translate(13 13)"/>
</clipPath>
</defs>
</svg>
