<svg width="64" height="64" viewBox="0 0 64 64" fill="none" xmlns="http://www.w3.org/2000/svg">
<rect width="64" height="64" rx="32" fill="white"/>
<g clip-path="url(#clip0_618_866)">
<path d="M32.6383 13.4749C32.2301 13.6308 31.8441 13.9648 31.6512 14.3433C31.5398 14.5585 31.4137 15.0855 31.2949 15.8573C31.1613 16.6886 31.0648 17.082 30.9758 17.171C30.8273 17.312 29.818 17.7499 29.625 17.7499C29.5508 17.7499 29.098 17.4605 28.6156 17.1116C28.1406 16.7628 27.6211 16.4066 27.4727 16.3323C27.057 16.1171 26.5969 16.08 26.0922 16.2284C25.7063 16.3398 25.5727 16.4362 24.8973 17.0968C23.9844 17.9948 23.7988 18.3511 23.8508 19.0487C23.9027 19.6128 23.977 19.7612 24.8008 20.882C25.1719 21.3718 25.4688 21.832 25.4688 21.8913C25.4688 22.1288 24.9789 23.1902 24.823 23.2941C24.734 23.3534 24.1328 23.487 23.4945 23.5835C22.218 23.7765 21.8469 23.9249 21.5055 24.3777C21.1418 24.8527 21.0898 25.0902 21.0898 26.2257C21.0898 27.1831 21.1121 27.3241 21.268 27.6581C21.4684 28.1034 21.8469 28.4523 22.2848 28.6081C22.4629 28.6749 23.0715 28.7937 23.643 28.8827C24.207 28.9644 24.7266 29.0683 24.8008 29.1054C24.9863 29.2093 25.4688 30.3671 25.4688 30.7308C25.4688 31.2355 25.8992 31.5249 26.3668 31.3319C26.6637 31.2058 26.7453 31.0277 26.7379 30.4784C26.7379 30.0925 26.6785 29.8773 26.3891 29.2241C26.0328 28.4077 25.7582 28.0737 25.2758 27.8734C25.1496 27.8214 24.5113 27.6952 23.873 27.5913C22.3813 27.3612 22.3961 27.3761 22.3664 26.3519C22.3367 25.5577 22.4109 25.2237 22.6633 25.0902C22.7449 25.0456 23.3238 24.9343 23.9547 24.8304C24.6301 24.7265 25.2164 24.5929 25.3945 24.5038C25.8102 24.2886 26.107 23.8952 26.441 23.1011C26.6785 22.5296 26.7305 22.3144 26.7305 21.9136C26.7305 21.305 26.6488 21.1343 25.8547 20.0655C25.2016 19.1898 25.0902 18.9745 25.1719 18.7519C25.2016 18.6702 25.4984 18.3437 25.825 18.0245C26.2852 17.5792 26.4633 17.453 26.6266 17.453C26.7824 17.453 27.109 17.646 27.7695 18.1284C28.2816 18.4995 28.8012 18.8558 28.9348 18.9077C29.3875 19.1007 30.0629 19.0413 30.8125 18.737C31.5695 18.4253 32.0074 18.0987 32.2227 17.6683C32.3117 17.505 32.4527 16.889 32.5566 16.221C32.6605 15.5827 32.7793 15.0038 32.8164 14.9296C32.9352 14.707 33.3656 14.6105 34.1301 14.6476C35.1023 14.6921 35.1098 14.6995 35.3324 16.1987C35.5848 17.9206 35.7555 18.1655 37.0691 18.7148C37.6406 18.9523 37.8781 19.0116 38.2344 19.0116C38.8355 19.0116 39.0508 18.9077 40.127 18.121C41.3219 17.2452 41.3219 17.2452 42.1457 18.0691C42.5984 18.5218 42.7617 18.737 42.7617 18.878C42.7617 19.0042 42.502 19.4273 42.0195 20.0952C41.218 21.1937 41.0918 21.4905 41.1512 22.1066C41.2031 22.5964 41.7301 23.7987 42.0418 24.1179C42.4203 24.5187 42.7395 24.6374 43.9863 24.8304C45.5301 25.0679 45.5078 25.053 45.5078 26.1812C45.5078 27.3612 45.5227 27.3464 43.9938 27.5839C43.348 27.6878 42.7023 27.8288 42.5539 27.8956C42.1234 28.1034 41.8414 28.4523 41.4926 29.2241C41.2105 29.8698 41.166 30.0257 41.166 30.4784C41.166 31.0944 41.3441 31.5101 41.8266 32.0296C42.2199 32.4527 42.5094 32.4898 42.8434 32.1558C43.1477 31.8515 43.1254 31.5991 42.7617 31.087C42.5984 30.8644 42.4648 30.5972 42.4648 30.5007C42.4648 30.278 42.8434 29.38 43.0141 29.187C43.1031 29.0905 43.3258 29.0163 43.6746 28.9569C45.7082 28.6378 45.8641 28.5859 46.302 28.1257C46.6805 27.7323 46.7918 27.3835 46.8289 26.4706C46.866 25.4687 46.7621 24.9194 46.4504 24.4519C46.1016 23.9323 45.7379 23.7839 44.3426 23.5612C43.4816 23.4277 43.1328 23.346 43.0289 23.2421C42.8508 23.0714 42.4648 22.1511 42.4648 21.9062C42.4648 21.7874 42.7098 21.3792 43.1625 20.7632C43.9344 19.7316 44.0457 19.4792 44.0457 18.8558C44.0457 18.2398 43.8379 17.8761 42.9918 17.0597C42.3832 16.4659 42.1977 16.3323 41.8711 16.2359C41.0324 15.9835 40.6613 16.0948 39.4887 16.9484C38.984 17.3195 38.4941 17.6534 38.4051 17.698C38.2789 17.7573 38.1156 17.7202 37.648 17.5273C37.3141 17.3862 36.9875 17.2081 36.9059 17.1265C36.8094 17.0152 36.7277 16.6812 36.609 15.9316C36.4086 14.6253 36.3418 14.4027 36.0227 14.0316C35.5625 13.4972 35.3102 13.4155 34.041 13.3933C33.2172 13.3784 32.8535 13.4007 32.6383 13.4749Z" fill="url(#paint0_linear_618_866)"/>
<path d="M32.6308 20.1544C30.6788 20.6146 29.1425 21.8095 28.3261 23.5017C27.8288 24.5333 27.7397 24.9489 27.7397 26.2478C27.7397 27.2571 27.762 27.4204 27.9476 27.9919C28.6229 30.0775 30.1667 31.5618 32.2671 32.163C33.039 32.3857 34.746 32.4079 35.4808 32.2001C36.7425 31.8513 37.4624 31.4357 38.3827 30.5153C39.4589 29.4392 40.0007 28.3407 40.164 26.8935C40.2901 25.7505 40.0601 24.4294 39.5554 23.4423C38.7909 21.9357 37.3511 20.7482 35.696 20.2657C34.9909 20.0653 33.2987 19.9985 32.6308 20.1544ZM34.8722 21.431C36.0003 21.661 36.8315 22.1286 37.6034 22.9599C38.4272 23.8505 38.9022 25.038 38.9022 26.2107C38.9022 27.9845 37.8187 29.7286 36.2304 30.5005C35.3917 30.9161 34.7905 31.0571 33.9296 31.0571C31.2132 31.0571 29.0163 28.89 29.0089 26.2107C29.0089 25.3943 29.1202 24.9193 29.521 24.0806C30.4636 22.1138 32.7347 20.9857 34.8722 21.431Z" fill="url(#paint1_linear_618_866)"/>
<path d="M47.0367 29.8179C45.8418 30.1073 44.9289 30.8718 44.1719 32.2077C43.9121 32.6679 43.5855 33.18 43.4445 33.3358C43.1402 33.6995 42.2867 34.2339 41.0695 34.8276L40.1641 35.2729L39.8746 35.0429C39.7113 34.9167 39.4219 34.746 39.2215 34.6495C38.8801 34.4936 38.7539 34.4862 36.082 34.4417C32.8684 34.3972 32.8313 34.3897 31.7551 33.6475C31.4285 33.4249 30.9609 33.1503 30.7086 33.0315C29.818 32.6159 29.5211 32.5714 27.4133 32.5417C23.6133 32.4749 23.2719 32.6159 20.3328 35.4659C19.5609 36.2081 19.457 36.3417 19.457 36.5569C19.457 37.0245 19.8949 37.3511 20.3105 37.1952C20.4145 37.1581 21.1121 36.5421 21.8543 35.8444C23.9102 33.8999 24.0215 33.8554 27.0051 33.8554C29.5656 33.8554 29.7215 33.8925 31.102 34.8054C31.4434 35.0354 32 35.3249 32.3266 35.4436L32.9277 35.6663L35.7109 35.7108C38.7168 35.7554 38.7168 35.7554 39.1027 36.171C39.5555 36.6534 39.5852 37.2991 39.177 37.7593C38.7094 38.2936 38.9617 38.264 34.2414 38.3085C30.1371 38.3456 29.9812 38.353 29.8773 38.4866C29.677 38.7612 29.7215 39.1843 29.9664 39.4069L30.1594 39.5776L34.5086 39.5554L38.8652 39.5331L39.2809 39.3401C39.8004 39.0952 40.2457 38.6647 40.5055 38.1452C40.6687 37.8335 40.7133 37.6183 40.743 37.0987L40.7727 36.453L42.0863 35.785C44.068 34.7683 44.4539 34.4268 45.2852 32.9202C45.493 32.5491 45.7676 32.1186 45.9086 31.9554C46.4875 31.28 47.5637 30.894 48.4691 31.0425C49.0777 31.139 49.382 31.2651 49.575 31.5175C49.8496 31.8589 49.7902 32.0518 49.0184 33.3284C46.9773 36.7054 44.5875 39.4737 41.782 41.7151C40.8023 42.4944 40.2012 42.8655 39.5703 43.0808C39.0953 43.2366 38.9988 43.244 33.4844 43.2811C27.3316 43.3331 27.3465 43.3257 27.109 43.7784C26.9828 44.0159 27.0051 44.2757 27.1758 44.4835C27.3539 44.7136 27.6359 44.7804 27.9477 44.669C28.1035 44.6171 30.0332 44.5725 33.7812 44.5429C38.8281 44.5058 39.4293 44.4835 39.8301 44.3722C40.6168 44.1347 41.1512 43.8526 42.0195 43.1995C45.3445 40.6983 48.3207 37.2546 50.6289 33.2171C50.9332 32.6827 50.9629 32.5788 50.9926 32.0518C51.0223 31.3468 50.8887 30.946 50.4879 30.5378C49.8125 29.8327 48.2836 29.5136 47.0367 29.8179Z" fill="url(#paint2_linear_618_866)"/>
<path d="M16.4883 37.1133C16.0281 37.2543 15.7016 37.5215 14.3953 38.8129L13 40.186V40.5348V40.8836L17.8984 45.7227C20.9934 48.7731 22.8711 50.5692 22.9898 50.5989C23.1012 50.6286 23.2645 50.6211 23.3684 50.584C23.4648 50.5469 24.1477 49.9309 24.8973 49.211C26.5227 47.645 26.6934 47.3852 26.6934 46.5465C26.6859 45.6114 26.723 45.6559 23.4203 42.3829C18.4848 37.5067 18.2844 37.3137 17.8688 37.1727C17.4902 37.0465 16.8148 37.0168 16.4883 37.1133ZM17.4012 38.4122C17.5348 38.4715 19.3828 40.2454 21.5203 42.368C25.209 46.0196 25.402 46.2274 25.3945 46.4723C25.3945 46.6133 25.35 46.7989 25.298 46.8879C25.2461 46.9696 24.7488 47.4817 24.1848 48.0309L23.1605 49.018L22.4035 48.2832C21.9879 47.8825 20.0434 45.9676 18.084 44.0379L14.5215 40.5274L15.5234 39.5625C16.518 38.6051 16.8816 38.3082 17.0672 38.3082C17.1191 38.3082 17.2676 38.3528 17.4012 38.4122Z" fill="url(#paint3_linear_618_866)"/>
</g>
<defs>
<linearGradient id="paint0_linear_618_866" x1="23.0813" y1="43.6457" x2="54.2518" y2="34.294" gradientUnits="userSpaceOnUse">
<stop stop-color="#FF3939"/>
<stop offset="1" stop-color="#4844F2"/>
</linearGradient>
<linearGradient id="paint1_linear_618_866" x1="28.7034" y1="39.6258" x2="44.3544" y2="36.1107" gradientUnits="userSpaceOnUse">
<stop stop-color="#FF3939"/>
<stop offset="1" stop-color="#4844F2"/>
</linearGradient>
<linearGradient id="paint2_linear_618_866" x1="21.8966" y1="53.6312" x2="56.1255" y2="37.7242" gradientUnits="userSpaceOnUse">
<stop stop-color="#FF3939"/>
<stop offset="1" stop-color="#4844F2"/>
</linearGradient>
<linearGradient id="paint3_linear_618_866" x1="14.0592" y1="58.6618" x2="31.2703" y2="54.8159" gradientUnits="userSpaceOnUse">
<stop stop-color="#FF3939"/>
<stop offset="1" stop-color="#4844F2"/>
</linearGradient>
<clipPath id="clip0_618_866">
<rect width="38" height="38" fill="white" transform="translate(13 13)"/>
</clipPath>
</defs>
</svg>
